<?xml version="1.0" encoding="utf-8"?><svg version="1.1" id="Layer_1" xmlns="http://www.w3.org/2000/svg" xmlns:xlink="http://www.w3.org/1999/xlink" x="0px" y="0px" width="122.88px" height="101.878px" viewBox="0 0 122.88 101.878" enable-background="new 0 0 122.88 101.878" xml:space="preserve"><g><path fill-rule="evenodd" clip-rule="evenodd" d="M64.406,12.143c-2.672-1.042-5.431-1.586-8.276-1.586 c-4.279,0-7.798,1.369-10.557,4.084L21.765,38.427l2.477,2.499l-9.037,9.101L0,34.799l9.036-9.037l2.802,2.737L35.515,4.844 C38.773,1.608,42.271,0,46.007,0C52.285,0,58.411,4.041,64.406,12.143L64.406,12.143z M100.535,5.408 c2.588,0,5.072,0.441,7.384,1.25l-5.874,6.358c-13.345,14.437,1.715,22.79,14.986,12.879l5.119-3.822 c0.475,1.813,0.729,3.717,0.729,5.679c0,12.341-10.003,22.345-22.345,22.345c-4.026,0-7.804-1.065-11.066-2.929L78.616,58.689 c10.214,9.778,20.431,19.554,30.646,29.33l-13.858,13.858C85.74,91.8,76.08,81.718,66.422,71.635L47.394,91.833 c-1.445,2.471-4.126,4.132-7.194,4.132c-4.599,0-8.329-3.729-8.329-8.329c0-1.988,0.699-3.815,1.862-5.247l-0.012-0.012 l0.073-0.063c0.601-0.723,1.322-1.342,2.132-1.828L57.327,62.14L30.941,34.504L41.89,23.556 c10.157,9.756,18.402,17.582,28.572,27.324l11.864-10.172c-2.604-3.654-4.136-8.125-4.136-12.955 C78.19,15.411,88.193,5.408,100.535,5.408L100.535,5.408z M28.63,10.362L17.747,21.245l-2.086-2.085L26.544,8.276L28.63,10.362 L28.63,10.362z"/></g></svg>