<?xml version="1.0" encoding="utf-8"?><svg version="1.1" id="Layer_1" xmlns="http://www.w3.org/2000/svg" xmlns:xlink="http://www.w3.org/1999/xlink" x="0px" y="0px" viewBox="0 0 106.45 122.88" style="enable-background:new 0 0 106.45 122.88" xml:space="preserve"><style type="text/css">.st0{fill-rule:evenodd;clip-rule:evenodd;}</style><g><path class="st0" d="M27.03,0h51.17c10.61,0,18.1,8.75,19.28,19.28l7.71,68.38c0.02,0.06,0.03,0.13,0.04,0.19 c0.59,4.97,1.02,9.29,1.16,13.11c0.14,3.85-0.02,7.15-0.63,10c-0.01,0.05-0.03,0.11-0.04,0.16c-0.56,6.55-6.1,11.75-12.8,11.75 h-79.8c-6.7,0-12.25-5.2-12.8-11.77c-0.02-0.08-0.03-0.17-0.03-0.25l-0.01-0.46l0-0.07c-0.03-1.08-0.07-2.27-0.11-3.52 c-0.16-4.77-0.34-10.29,0.05-15.06l-0.01,0.02L0.3,91c0.02-0.25,0.05-0.51,0.08-0.76l7.37-70.96C8.84,8.73,16.43,0,27.03,0L27.03,0 z M103.9,103.37c0-0.74-0.02-1.51-0.05-2.3c-0.13-3.45-0.51-7.43-1.04-11.99c-0.87-0.34-1.81-0.52-2.79-0.52H6.48 c-1.23,0-2.39,0.29-3.42,0.8C2.5,93.26,2.5,98.1,2.61,102.69c2.33-3.32,6.18-5.5,10.52-5.5h79.8 C97.56,97.19,101.64,99.67,103.9,103.37L103.9,103.37z M14.95,107.85h19.74v7.01H14.95V107.85L14.95,107.85z"/></g></svg>
