<?xml version="1.0" encoding="utf-8"?><svg version="1.1" id="Layer_1" xmlns="http://www.w3.org/2000/svg" xmlns:xlink="http://www.w3.org/1999/xlink" x="0px" y="0px" viewBox="0 0 73.53 122.88" style="enable-background:new 0 0 73.53 122.88" xml:space="preserve"><style type="text/css">.st0{fill-rule:evenodd;clip-rule:evenodd;}</style><g><path class="st0" d="M7.86,59.48C2.94,53.23,0,45.34,0,36.77C0,16.46,16.46,0,36.76,0c20.31,0,36.77,16.46,36.77,36.77 c0,8.62-2.97,16.55-7.94,22.82c-12.72,3.4-26.37,4.2-40.73,2.68c-2.84-0.3-5.74-0.7-8.7-1.19C13.34,60.61,10.57,60.08,7.86,59.48 L7.86,59.48z M34.68,122.88L13.04,69.5l-0.97-3.44l3.52,0.61l1.71,0.29v0.01l0.12,0.02l1.14,0.18v-0.01l1.16,0.18v0 c1.98,0.29,3.91,0.54,5.76,0.74l0.52,0.05c1.5,0.15,3.07,0.28,4.69,0.39c1.61,0.1,3.16,0.18,4.63,0.21 c7.74,0.2,15.27-0.38,22.53-1.78l3.58-0.69l-0.99,3.51l-21.41,53.11H34.68L34.68,122.88z M26.14,34.12c0.45-1.21,1.79-1.82,3-1.37 c1.21,0.45,1.82,1.79,1.37,3l-0.12,0.31v0.01l0,0.01h0c-0.66,1.76-2.26,2.93-3.81,4.07c-0.26,0.19-0.51,0.38-0.9,0.68 c-0.41,0.32-1.08,0.18-1.08,0.32l0.03,0.02c0.06,0.05,0.07,0.1,0.07,0.14c0.06,0.09,0.12,0.18,0.16,0.27 c1.2,0.33,1.94,1.54,1.66,2.76c-0.28,1.26-1.53,2.05-2.79,1.77c-0.51-0.11-1.59-0.9-2.16-1.41l-0.25-0.22l-0.13-0.12 c-0.05-0.05-0.1-0.1-0.16-0.15v0c-0.04-0.04-0.07-0.08-0.11-0.13c-2.32-2.98-0.6-5.02,1.88-6.95c0.22-0.17,0.62-0.46,1.01-0.76 c1-0.73,2.03-1.49,2.2-1.94h0L26.14,34.12L26.14,34.12z M10.67,23.23c0-1.3,1.05-2.34,2.34-2.34c1.3,0,2.34,1.05,2.34,2.34v0.01 h-0.01c0,0.66-0.13,1.31-0.36,1.94c-0.13,0.35-0.27,0.68-0.43,0.97c-0.82,1.52-2.25,2.88-3.68,3.56c-1.16,0.56-2.55,0.06-3.11-1.1 c-0.56-1.16-0.06-2.55,1.1-3.11c0.59-0.28,1.2-0.88,1.57-1.57c0.07-0.13,0.12-0.24,0.16-0.33c0.05-0.14,0.08-0.27,0.08-0.36 L10.67,23.23L10.67,23.23L10.67,23.23z M18.61,19.39c-0.74-1.05-0.48-2.51,0.58-3.25c1.06-0.74,2.51-0.48,3.25,0.58l0,0l0.03,0.04 L23,17.47c0.33,0.45,0.61,0.81,0.74,0.99c1.33,1.7,3.1,3.8,3.96,4.29c1.13,0.63,1.53,2.05,0.91,3.17 c-0.63,1.13-2.05,1.53-3.18,0.91c-1.53-0.85-3.78-3.45-5.38-5.5c-0.43-0.55-0.68-0.88-0.82-1.06c-0.08-0.1-0.28-0.38-0.56-0.79 C18.66,19.46,18.63,19.43,18.61,19.39L18.61,19.39L18.61,19.39z M41.26,47.53c-0.96-0.86-1.03-2.34-0.17-3.29 c0.86-0.95,2.34-1.03,3.3-0.17l0.16,0.15l0.01,0v0l0.05,0.05l0-0.01c1.08,0.99,2.11,2.24,3.16,3.52c0.64,0.78,1.28,1.57,1.85,2.19 l0.29,0.32c0.55,0.6,1.75,0.91,2.9,1.21l0-0.01c0.81,0.21,1.6,0.41,2.42,0.75c1.2,0.5,1.76,1.86,1.26,3.06 c-0.5,1.19-1.87,1.76-3.06,1.26c-0.47-0.19-1.12-0.36-1.78-0.53v-0.01l0,0c-1.84-0.47-3.73-0.95-5.21-2.58l-0.29-0.32 c-0.72-0.79-1.37-1.59-2.02-2.38c-0.95-1.15-1.88-2.29-2.68-3.03l0-0.01L41.26,47.53L41.26,47.53z M49.35,28.14h11.64H61v0.01 c1.37,0,2.62,0.56,3.52,1.46c0.9,0.9,1.45,2.14,1.46,3.51h0.01v0.01v1.88v0h-0.01c0,1.37-0.56,2.62-1.47,3.53 c-0.9,0.9-2.14,1.45-3.51,1.45V40h-0.01H49.35h0v-0.01c-1.37,0-2.62-0.56-3.52-1.47c-0.9-0.9-1.45-2.14-1.45-3.51h-0.01v-0.01 v-1.88v0h0.01c0-1.37,0.56-2.62,1.46-3.52c0.9-0.9,2.14-1.45,3.51-1.46L49.35,28.14L49.35,28.14L49.35,28.14z M42.83,10.17h12.23h0 v0.01c1.41,0,2.7,0.58,3.62,1.51c0.92,0.92,1.5,2.2,1.5,3.61h0.01v0.01v1.97v0h-0.01c0,1.42-0.58,2.71-1.5,3.63 c-0.05,0.05-0.1,0.1-0.16,0.14c-0.91,0.84-2.12,1.35-3.46,1.35v0.01h-0.01H42.83h0v-0.01c-1.42,0-2.7-0.58-3.62-1.51l-0.01,0.01 c-0.92-0.92-1.49-2.21-1.5-3.62h-0.01v-0.01v-1.97v0h0.01c0-1.41,0.58-2.7,1.51-3.63C40.13,10.76,41.41,10.18,42.83,10.17 L42.83,10.17L42.83,10.17L42.83,10.17z"/></g></svg>