<svg fill="currentColor" version="1.1" viewBox="0 0 256 256" xmlns="http://www.w3.org/2000/svg" xmlns:cc="http://creativecommons.org/ns#" xmlns:dc="http://purl.org/dc/elements/1.1/" xmlns:rdf="http://www.w3.org/1999/02/22-rdf-syntax-ns#">
 <metadata>
  <rdf:rdf>
   <cc:work rdf:about="">
    <dc:format>image/svg+xml</dc:format>
    <dc:type rdf:resource="http://purl.org/dc/dcmitype/StillImage"></dc:type>
   </cc:work>
  </rdf:rdf>
 </metadata>
 <path d="m128 36a8.0007 8.0007 0 0 0-5.6565 2.3438l-77.656 77.655h-36.689a8.0001 8.0001 0 0 0-8 8.0003 8.0001 8.0001 0 0 0 8 8.0003h36.689l77.656 77.655a8.0007 8.0007 0 0 0 11.313 0l77.655-77.655h36.687a8.0001 8.0001 0 0 0 8.0006-8.0003 8.0001 8.0001 0 0 0-8.0006-8.0003h-36.687l-77.655-77.655a8.0007 8.0007 0 0 0-5.6564-2.3438zm0 19.312 68.688 68.688-68.688 68.688-68.688-68.688zm0 36.689a32 32 0 0 0-32 32 32 32 0 0 0 32 32 32 32 0 0 0 32-32 32 32 0 0 0-32-32zm0 16.001a16.001 16.001 0 0 1 16.001 16.001 16.001 16.001 0 0 1-16.001 16.001 16.001 16.001 0 0 1-16.001-16.001 16.001 16.001 0 0 1 16.001-16.001zm-80.001 48a8.0001 8.0001 0 0 0-5.6563 2.3439 8.0001 8.0001 0 0 0 0 11.313l85.656 85.655 85.655-85.655a8.0001 8.0001 0 0 0 0-11.313 8.0001 8.0001 0 0 0-11.313 0l-74.343 74.343-74.343-74.343a8.0001 8.0001 0 0 0-5.6566-2.3439z" stroke-width="2.2858"></path>
</svg>
