<svg xmlns="http://www.w3.org/2000/svg" fill="currentColor" version="1.1" viewBox="0 0 256 256" id="svg234">
  <path d="m 128,36 a 6.9370185,6.9370185 0 0 0 -4.57885,2.005044 L 47.12206,114.30412 a 6.9370185,6.9370185 0 0 0 0,9.80789 l 76.29909,76.29906 a 6.9370185,6.9370185 0 0 0 9.80788,0 l 76.29909,-76.29906 a 6.9370185,6.9370185 0 0 0 0,-9.80789 L 133.22903,38.005044 A 6.9370185,6.9370185 0 0 0 127.99964,36 Z m 0.32517,16.717363 66.49116,66.491147 -66.49116,66.49117 -66.491168,-66.49117 z M 45.089806,160.82157 v 6.93627 a 6.9362785,6.9362785 0 0 0 2.032242,4.90413 l 76.299082,76.29908 a 6.9370185,6.9370185 0 0 0 9.8079,0 l 76.29909,-76.29908 a 6.9362785,6.9362785 0 0 0 2.03201,-4.90413 6.9362785,6.9362785 0 0 0 0,-0.32514 v -6.61106 h -6.93624 a 6.9362785,6.9362785 0 0 0 -4.90406,2.0321 l -71.39466,71.39465 -71.39465,-71.39465 a 6.9362785,6.9362785 0 0 0 -4.904217,-2.00502 v -0.0271 z" fill="currentColor"></path>
</svg>
