<svg fill="currentColor" version="1.1" viewBox="0 0 256 256" xmlns="http://www.w3.org/2000/svg">
 <path d="m128.12 48c-41.385 0-75.558 31.654-79.594 72h-40.406a8.0008 8.0008 0 1 0 0 16h40.406c4.0354 40.346 38.209 72 79.594 72 41.385 0 75.558-31.654 79.594-72h40.406a8.0008 8.0008 0 1 0 0-16h-40.406c-4.0354-40.346-38.209-72-79.594-72zm0 16c35.174 0 63.512 28.149 63.938 63.219a8.0008 8.0008 0 0 0 0 1.5312c-0.40914 35.085-28.753 63.25-63.938 63.25-35.174 0-63.512-28.149-63.937-63.219a8.0008 8.0008 0 0 0 0-1.5312c0.40914-35.085 28.753-63.25 63.937-63.25zm0 32c-17.578 0-32 14.422-32 32s14.422 32 32 32 32-14.422 32-32c0-17.578-14.422-32-32-32zm0 16c8.9313 0 16 7.0687 16 16s-7.0687 16-16 16-16-7.0687-16-16 7.0687-16 16-16z"></path>
</svg>
