<?xml version="1.0" ?><svg data-name="Layer 1" id="Layer_1" viewBox="0 0 512 512" xmlns="http://www.w3.org/2000/svg"><title/><path d="M305.5,336.072a89.989,89.989,0,0,1-99,0,5.8,5.8,0,1,0-6.4,9.668,101.594,101.594,0,0,0,111.8,0,5.8,5.8,0,0,0-6.4-9.668Z"/><circle cx="202.451" cy="281.424" r="22.401"/><circle cx="309.55" cy="281.424" r="22.401"/><path d="M256,0C114.615,0,0,114.615,0,256S114.615,512,256,512,512,397.385,512,256,397.385,0,256,0ZM389.309,288.383a65.221,65.221,0,0,1,.957,11.093c0,51.289-60.112,92.867-134.266,92.867s-134.266-41.578-134.266-92.867a65.323,65.323,0,0,1,.957-11.093,33.28,33.28,0,1,1,37.135-53.7c23.06-16.372,54.779-26.878,90.044-27.974l16.842-81.227a7.307,7.307,0,0,1,8.606-5.679l56.573,11.448a22.808,22.808,0,1,1-2.9,14.325L279.546,135.57l-14.771,71.241c34.205,1.527,64.918,11.91,87.4,27.872a33.278,33.278,0,1,1,37.135,53.7Z"/></svg>