<?xml version="1.0" encoding="utf-8"?><!-- Uploaded to: SVG Repo, www.svgrepo.com, Generator: SVG Repo Mixer Tools -->
<svg width="800px" height="800px" viewBox="0 0 64 64" xmlns="http://www.w3.org/2000/svg" xmlns:xlink="http://www.w3.org/1999/xlink" aria-hidden="true" role="img" class="iconify iconify--emojione-monotone" preserveAspectRatio="xMidYMid meet"><path d="M32 2C15.431 2 2 15.432 2 32s13.431 30 30 30c16.568 0 30-13.432 30-30S48.568 2 32 2zm0 57.5C16.836 59.5 4.5 47.164 4.5 32S16.836 4.5 32 4.5c15.163 0 27.5 12.336 27.5 27.5S47.163 59.5 32 59.5z" fill="#000000"></path><path d="M54.616 19.053a16.415 16.415 0 0 0-13.492-3.615c-.703.135-.193 2.27.387 2.156c4.168-.748 8.457.4 11.691 3.133c.445.386 1.955-1.206 1.414-1.674" fill="#000000"></path><path d="M22.488 17.443c.578.113 1.09-2.021.387-2.156a16.427 16.427 0 0 0-13.493 3.615c-.54.469.969 2.063 1.412 1.674a14.24 14.24 0 0 1 11.694-3.133" fill="#000000"></path><path d="M44.584 40.279c-8.11 5.656-17.106 5.623-25.168 0c-.97-.676-1.845.496-1.187 1.578c2.458 4.047 7.417 7.65 13.771 7.65s11.313-3.604 13.771-7.65c.658-1.082-.217-2.253-1.187-1.578" fill="#000000"></path><path d="M51.814 26.174c-4.225 3.32-11.059 3.014-14.892.002c-.669.453-1.216.633-1.01 1.033c4.214 7.953 12.696 7.951 16.911 0c.209-.4-.339-.58-1.009-1.035" fill="#000000"></path><path d="M28.087 27.209c.207-.4-.34-.58-1.01-1.035c-4.225 3.32-11.059 3.014-14.891.002c-.67.453-1.217.633-1.011 1.033c4.215 7.953 12.698 7.951 16.912 0" fill="#000000"></path></svg>