<svg xmlns="http://www.w3.org/2000/svg" xml:space="preserve" fill-rule="evenodd" clip-rule="evenodd" image-rendering="optimizeQuality" shape-rendering="geometricPrecision" text-rendering="geometricPrecision" viewBox="0 0 512 512"><path d="M256 0C114.615 0 0 114.615 0 256s114.615 256 256 256 256-114.615 256-256S397.385 0 256 0zm58.43 142.725c17.907 0 34.073 7.516 45.455 19.609 14.154-2.789 27.51-8.004 39.531-15.111a62.637 62.637 0 0 1-27.389 34.435c12.552-1.478 24.571-4.794 35.729-9.785l-.027.027c-8.346 12.497-18.887 23.476-31.047 32.174.112 2.678.173 5.325.173 8.059 0 82.264-62.659 177.142-177.146 177.142-35.142 0-67.853-10.262-95.467-27.978 4.907.588 9.819.896 14.86.896 29.21 0 56.007-9.952 77.341-26.666-27.21-.526-50.187-18.54-58.146-43.252 3.853.7 7.73 1.114 11.752 1.114 5.68 0 11.19-.785 16.41-2.202-28.498-5.69-49.943-30.867-49.943-61.04v-.778c8.424 4.61 18.017 7.455 28.216 7.758a62.113 62.113 0 0 1-27.668-51.79 62.324 62.324 0 0 1 8.424-31.298c30.706 37.684 76.573 62.453 128.31 65.074a63.128 63.128 0 0 1-1.591-14.172c0-34.363 27.838-62.216 62.223-62.216z"/></svg>