<svg xmlns="http://www.w3.org/2000/svg" width="320.022" height="60.308"><path d="M133.966.007c-7.783 0-12.065 6.58-12.065 11.13v5.84c0 6.7 5.474 10.852 10.55 10.852h17.82c2.244 0 2.714 1.47 2.714 2.71v3.768c0 .4-.08 4.02-2.715 4.02h-24.303c-2.415 0-4.16 1.68-4.16 3.98v1.041c0 2.29 1.745 3.96 4.16 3.96h25.624c6.698 0 11.02-4.66 11.02-11.878v-6.302c0-6.779-4.87-9.81-9.706-9.81h-17.533c-2.64 0-3.835-1.98-3.835-3.379v-3.48c0-2.19 1.464-3.46 4.025-3.46h19.408c2.38 0 4.17-1.71 4.17-3.97v-1.04c0-2.27-1.82-3.982-4.25-3.982h-20.923zM206.826.007a4.16 4.16 0 0 0-4.155 4.171v29.838c0 2.39-1.95 4.311-4.31 4.311h-13.546a4.31 4.31 0 0 1-4.309-4.311V4.178c0-2.301-1.87-4.17-4.169-4.17h-1.31a4.135 4.135 0 0 0-4.17 4.17v30.968c0 7.21 5.673 12.44 13.489 12.44h14.485c7.804 0 13.475-5.228 13.475-12.44V4.178c0-2.33-1.83-4.17-4.16-4.17h-1.32zM232.756.007c-7.78 0-12.074 6.58-12.074 11.13v5.84c0 6.7 5.485 10.852 10.564 10.852h17.814c2.249 0 2.72 1.47 2.72 2.71v3.768c0 .4-.08 4.02-2.72 4.02h-24.314c-2.404 0-4.16 1.68-4.16 3.98v1.041c0 2.29 1.756 3.96 4.16 3.96h25.633c6.7 0 11.041-4.66 11.041-11.878v-6.302c0-6.779-4.884-9.81-9.72-9.81h-17.533c-2.646 0-3.839-1.98-3.839-3.379v-3.48c0-2.19 1.465-3.46 4.025-3.46h19.42c2.374 0 4.158-1.71 4.158-3.97v-1.04c0-2.27-1.82-3.982-4.26-3.982h-20.913zM269.676 3.987v39.358c0 2.26 1.705 3.96 3.964 3.96h31.364c2.415 0 4.16-1.67 4.16-3.96v-1.041c0-2.3-1.745-3.98-4.16-3.98h-25.687v-10.02h18.822c2.41 0 4.16-1.69 4.16-3.981v-1.04c0-2.301-1.75-3.971-4.16-3.971h-18.822V8.992h24.382c2.406 0 4.16-1.66 4.16-3.97v-1.04c0-2.302-1.754-3.982-4.16-3.982L273.73.003c-2.306 0-4.055 1.715-4.055 3.984z"/><g stroke-width="0"><path d="M7.13 18.742C3.2 18.742 0 21.8 0 25.572v14.84c0 3.83 3.096 6.95 6.891 6.95h9.6c3.795 0 6.89-3.12 6.89-6.95v-14.84c0-3.77-3.2-6.83-7.13-6.83zm-2.077 21.08v-13.55a2.903 2.903 0 0 1 2.9-2.89h7.48c1.56 0 2.89 1.33 2.89 2.89v13.55c0 1.6-1.294 2.9-2.89 2.9H7.898c-1.6 0-2.845-1.272-2.845-2.9zM45.12 18.566c-2.769 0-4.856.99-6.53 1.8-1.021.49-1.905.912-2.591.912-.31 0-.575-.14-.716-.37l-.638-1.22c-.16-.322-.8-.95-1.591-.95h-.949c-.912 0-1.642.82-1.642 1.82v37.64c0 1.18.932 2.11 2.11 2.11h.821c1.17 0 2.12-.94 2.12-2.11v-12.49c0-.37.241-.77.485-.77.686 0 1.57.402 2.59.87 1.675.77 3.762 1.719 6.53 1.719h.886c4.9 0 7.948-2.801 7.948-7.3V25.86c0-4.43-3.113-7.29-7.948-7.29h-.886zM35.515 39.53V26.568c0-1.791 1.4-3.189 3.19-3.189h7.01c1.79 0 3.188 1.4 3.188 3.189v12.961a3.194 3.194 0 0 1-3.189 3.189h-7.01a3.193 3.193 0 0 1-3.189-3.189zM61.027 25.565v14.729c0 3.82 3.1 7.06 6.76 7.06h9.904c1.224 0 2.11-.85 2.11-2.002v-.649c0-1.16-.886-1.99-2.11-1.99h-8.137c-2.28 0-3.483-1.121-3.483-3.252v-4.31H80.75c2.36 0 3.756-1.44 3.756-3.88v-5.71c0-3.77-3.195-6.83-7.11-6.83l-9.248.002c-3.93.004-7.121 3.06-7.121 6.832zm5.046.65c0-1.59 1.25-2.84 2.843-2.84h7.71c1.59 0 2.83 1.25 2.83 2.84v4.599H66.07c.002-.6.002-4.599.002-4.599zM104.91 18.566c-2.76 0-4.841.99-6.521 1.791-1.046.491-1.939.921-2.668.921-.321 0-.45-.04-.7-.472l-.58-1.06c-.334-.67-.9-1.008-1.665-1.008h-.816c-.985 0-1.704.769-1.704 1.82v24.689c0 1.17.924 2.11 2.115 2.11h.815c1.17 0 2.124-.95 2.124-2.11v-18.68c0-1.75 1.43-3.188 3.18-3.188h7.014a3.196 3.196 0 0 1 3.185 3.189v18.679c0 1.17.93 2.11 2.11 2.11h.824c1.17 0 2.12-.95 2.12-2.11v-19.39c0-4.43-3.114-7.29-7.953-7.29z"/></g><path d="M316.184 37.79c2.137 0 3.838 1.736 3.838 3.909 0 2.204-1.703 3.923-3.855 3.923-2.136 0-3.873-1.719-3.873-3.923 0-2.172 1.737-3.91 3.873-3.91zm-.017.606c-1.719 0-3.126 1.477-3.126 3.3 0 1.86 1.407 3.318 3.143 3.318 1.737.019 3.126-1.458 3.126-3.3 0-1.841-1.39-3.318-3.126-3.318zm-.73 5.576h-.694v-4.359c.364-.052.712-.105 1.233-.105.66 0 1.094.139 1.354.33.261.19.401.484.401.903 0 .572-.382.92-.85 1.06v.036c.382.069.642.416.73 1.06.104.678.206.938.276 1.076h-.73c-.104-.138-.208-.538-.294-1.112-.105-.554-.382-.764-.938-.764h-.486v1.875zm0-2.415h.504c.573 0 1.059-.207 1.059-.748 0-.382-.277-.764-1.06-.764-.226 0-.382.017-.503.037z"/></svg>