<svg xmlns="http://www.w3.org/2000/svg" xml:space="preserve" fill-rule="evenodd" clip-rule="evenodd" image-rendering="optimizeQuality" shape-rendering="geometricPrecision" text-rendering="geometricPrecision" viewBox="0 0 512 512"><path d="M256 0C114.615 0 0 114.615 0 256s114.615 256 256 256 256-114.615 256-256S397.385 0 256 0zm-.133 144.176h.117s66.778-.001 111.239 3.238c6.196.733 19.752.816 31.857 13.473 9.553 9.623 12.656 31.54 12.656 31.54l.018-.017s3.164 25.771 3.228 51.49V268c0 25.772-3.164 51.49-3.164 51.49s-3.097 21.941-12.656 31.565c-12.106 12.663-25.637 12.739-31.857 13.472-44.461 3.18-111.297 3.297-111.297 3.297s-82.672-.732-108.127-3.162c-7.1-1.35-23.002-.938-35.102-13.596-9.494-9.64-12.597-31.558-12.597-31.558s-3.164-25.772-3.164-51.49v-24.1c0-25.772 3.164-51.49 3.164-51.49s3.039-21.918 12.597-31.541c12.1-12.663 25.636-12.716 31.856-13.473 44.485-3.24 111.232-3.238 111.232-3.238zm-32.818 63.719v89.363l85.894-44.531-85.894-44.832z"/></svg>