<svg xmlns="http://www.w3.org/2000/svg" version="1.1" viewBox="0 0 32 32"><linearGradient id="a" x1="4" x2="29" y1="306.03" y2="306.03" gradientUnits="userSpaceOnUse"><stop offset="0" stop-color="#241f31"/><stop offset=".04" stop-color="#3d3846"/><stop offset=".08" stop-color="#241f31"/><stop offset=".92" stop-color="#241f31"/><stop offset=".96" stop-color="#3d3846"/><stop offset="1" stop-color="#241f31"/></linearGradient><g transform="translate(0 -288.53)"><rect width="25" height="17" x="4" y="297.53" fill="url(#a)" ry="2"/><rect width="25" height="11" x="4" y="297.53" fill="#5e5c64" ry="2"/><g fill="#3d3846"><rect width="11" height="4" x="4" y="306.53" ry="1"/><path d="m17 306.53 2 2-2 2h-4v-4zm-13 0h2v2h-2z"/></g><path fill="#241f31" d="M8 301.533h17v2H8z"/><path fill="#f6f5f4" d="M9 291.533h15v11H9z"/><path fill="#3d3846" d="M8 313.533h17v4H8z"/><path d="M8 311.533h17v2H8z"/><path fill="#f6f5f4" d="m10 312.53h13v4h-13z"/><path fill="#deddda" d="M10 292.533h13v1H10zm0 2h13v1H10zm0 2h13v1H10zm0 2h13v1H10zm0 2h13v1H10z"/><rect width="3" height="2" x="6" y="307.53" fill="#26a269" ry="0"/><path fill="#fff" d="m7 309.53 1-2h-2v2z" opacity=".2"/><rect width="1" height="1" x="10" y="307.53" fill="#9a9996" ry=".5"/><rect width="1" height="1" x="12" y="307.53" fill="#9a9996" ry=".5"/><path fill="#deddda" d="m10 312.53h13v1h-13z"/><path fill="#77767b" d="m17 306.53v4l2-2z"/></g></svg>