<svg version="1.1" viewBox="0 0 128 128" xmlns="http://www.w3.org/2000/svg">
 <radialGradient id="b" cx="64" cy="55.96" r="24" gradientUnits="userSpaceOnUse">
  <stop stop-color="#f8e45c" offset="0"/>
  <stop stop-color="#f6d32d" offset="1"/>
 </radialGradient>
 <linearGradient id="a" x1="24" x2="104" y1="119.96" y2="119.96" gradientUnits="userSpaceOnUse">
  <stop stop-color="#5e5c64" offset="0"/>
  <stop stop-color="#9a9996" offset=".05"/>
  <stop stop-color="#5e5c64" offset=".1"/>
  <stop stop-color="#5e5c64" offset=".9"/>
  <stop stop-color="#9a9996" offset=".95"/>
  <stop stop-color="#5e5c64" offset="1"/>
 </linearGradient>
 <g stroke-width="4">
  <rect x="24" y="16" width="80" height="104" rx="8" fill="url(#a)"/>
  <rect x="24" y="8" width="80" height="104" rx="8" fill="#9a9996"/>
  <rect x="76" y="84" width="16" height="16" ry="4" fill="#5e5c64"/>
  <path d="m64 40a32 32 0 0 0-32 32 32 32 0 0 0 32 32 32 32 0 0 0 32-32 32 32 0 0 0-32-32z" fill="#5e5c64"/>
  <rect x="72" y="80" width="16" height="16" ry="4" fill="#3d3846"/>
  <g fill="#5e5c64">
   <rect x="36" y="44" width="16" height="16" ry="4"/>
   <rect x="76" y="44" width="16" height="16" ry="4"/>
   <rect x="36" y="84" width="16" height="16" ry="4"/>
  </g>
  <g fill="#3d3846">
   <circle cx="64" cy="72" r="28"/>
   <rect x="40" y="48" width="16" height="16" ry="4"/>
   <rect x="72" y="48" width="16" height="16" ry="4"/>
   <rect x="40" y="80" width="16" height="16" ry="4"/>
  </g>
  <path d="m64 48a24 24 0 0 0-24 24 24 24 0 0 0 24 24 24 24 0 0 0 24-24 24 24 0 0 0-24-24z" fill="url(#b)"/>
  <path d="m64 60a12 12 0 0 0-12 12 12 12 0 0 0 12 12 12 12 0 0 0 12-12 12 12 0 0 0-12-12z" fill="#3d3846"/>
  <path d="M64 48a24 24 0 0 0-24 24 24 24 0 0 0 .1 2.008A24 24 0 0 1 64 52a24 24 0 0 1 23.9 21.992A24 24 0 0 0 88 72a24 24 0 0 0-24-24z" fill="#e5a50a"/>
  <path d="m64 12a12 12 0 0 0-12 12 12 12 0 0 0 12 12 12 12 0 0 0 12-12 12 12 0 0 0-12-12z" fill="#77767b"/>
  <path d="m64 16a8 8 0 0 0-8 8 8 8 0 0 0 8 8 8 8 0 0 0 8-8 8 8 0 0 0-8-8z" fill="#5e5c64"/>
  <path d="M64 16a8 8 0 0 0-8 8 8 8 0 0 0 .256 1.984A8 8 0 0 1 64 20a8 8 0 0 1 7.744 6.016A8 8 0 0 0 72 24a8 8 0 0 0-8-8z" fill="#3d3846"/>
 </g>
</svg>
