<svg version="1.1" viewBox="0 0 128 128" xmlns="http://www.w3.org/2000/svg">
 <linearGradient id="a" x1="6" x2="26" y1="16" y2="16" gradientTransform="scale(4)" gradientUnits="userSpaceOnUse">
  <stop stop-color="#5e5c64" offset="0"/>
  <stop stop-color="#9a9996" offset=".05"/>
  <stop stop-color="#5e5c64" offset=".1"/>
  <stop stop-color="#5e5c64" offset=".9"/>
  <stop stop-color="#9a9996" offset=".95"/>
  <stop stop-color="#5e5c64" offset="1"/>
 </linearGradient>
 <linearGradient id="b" x1="16" x2="16" y1="3" y2="24" gradientTransform="scale(4)" gradientUnits="userSpaceOnUse">
  <stop stop-color="#c0bfbc" offset="0"/>
  <stop stop-color="#deddda" offset="1"/>
 </linearGradient>
 <path d="M12 12v12c2.216 0 4 1.784 4 4s-1.784 4-4 4v36c2.216 0 4 1.784 4 4s-1.784 4-4 4v8c2.216 0 4 1.784 4 4s-1.784 4-4 4v24h104V92c-2.216 0-4-1.784-4-4s1.784-4 4-4v-8c-2.216 0-4-1.784-4-4s1.784-4 4-4V32c-2.216 0-4-1.784-4-4s1.784-4 4-4V12z" fill="#26a269"/>
 <path d="M12 12v8c2.216 0 4 1.784 4 4s-1.784 4-4 4v36c2.216 0 4 1.784 4 4s-1.784 4-4 4v8c2.216 0 4 1.784 4 4s-1.784 4-4 4v24h104V88c-2.216 0-4-1.784-4-4s1.784-4 4-4v-8c-2.216 0-4-1.784-4-4s1.784-4 4-4V28c-2.216 0-4-1.784-4-4s1.784-4 4-4v-8z" fill="#2ec27e"/>
 <rect x="20" y="20" width="88" height="84" ry="4" fill="#f6f5f4"/>
 <rect x="24" y="20" width="80" height="80" ry="8" fill="url(#a)"/>
 <rect x="24" y="16" width="80" height="76" ry="8" fill="url(#b)"/>
 <path d="m12 104 8 8h-8z" fill="#f6d32d"/>
 <path d="M56 24h16v16H56zM56 48h16v36H56z" color="#bebebe" fill="#9a9996" overflow="visible"/>
</svg>
