<svg xmlns="http://www.w3.org/2000/svg" version="1" viewBox="0 0 128 128"><defs><linearGradient id="e" x1="16" x2="16" y1="7.045" y2="24.957" gradientTransform="scale(4)" gradientUnits="userSpaceOnUse"><stop offset="0" stop-color="#fff"/><stop offset="1" stop-color="#f6f5f4"/></linearGradient><linearGradient id="f" x1="16" x2="16" y1="7" y2="24.957" gradientTransform="scale(4)" gradientUnits="userSpaceOnUse"><stop offset="0" stop-color="#ff7800"/><stop offset="1" stop-color="#c64600"/></linearGradient><linearGradient id="g" x1="6.25" x2="26.25" y1="14.5" y2="14.5" gradientTransform="scale(4)" gradientUnits="userSpaceOnUse"><stop offset="0" stop-color="#deddda"/><stop offset="1" stop-color="#f6f5f4"/></linearGradient><linearGradient id="d" x1="24.001" x2="104" y1="68.085" y2="68.085" gradientUnits="userSpaceOnUse"><stop offset="0" stop-color="#c0bfbc"/><stop offset=".075" stop-color="#deddda"/><stop offset=".491" stop-color="#c0bfbc"/><stop offset="1" stop-color="#c0bfbc"/></linearGradient></defs><rect width="104" height="104" x="12" y="16" fill="#cdab8f" ry="0"/><rect width="104" height="104" x="12" y="12" fill="#e1ccbb" ry="0"/><rect width="48" height="16" x="12" y="12" fill="#c01c28" ry="0"/><rect width="48" height="16" x="68" y="12" fill="#c01c28" ry="0"/><rect width="48" height="18" x="40" y="38" fill="#a51d2d" ry="0"/><rect width="20" height="20" x="96" y="36" fill="#c01c28" ry="0"/><rect width="20" height="20" x="12" y="36" fill="#c01c28" ry="0"/><rect width="48" height="16" x="12" y="8" fill="#ed333b" ry="0"/><rect width="48" height="16" x="68" y="8" fill="#ed333b" ry="0"/><rect width="48" height="16" x="40" y="36" fill="#e01b24" ry="0"/><rect width="20" height="16" x="96" y="36" fill="#ed333b" ry="0"/><rect width="20" height="16" x="12" y="36" fill="#ed333b" ry="0"/><g fill="#c01c28"><rect width="48" height="16" x="12" y="68" ry="0"/><rect width="48" height="16" x="68" y="68" ry="0"/><rect width="48" height="18" x="40" y="94" ry="0"/><rect width="20" height="16" x="96" y="96" ry="0"/><rect width="20" height="16" x="12" y="96" ry="0"/></g><g fill="#ed333b"><rect width="48" height="16" x="12" y="64" ry="0"/><rect width="48" height="16" x="68" y="64" ry="0"/><rect width="48" height="16" x="40" y="92" ry="0"/></g><path fill="url(#d)" d="m64.001 27.999c-8 6-28.297 12.18-40 8 1.3086 31.923 6.5884 61.308 40 72.172 33.412-10.864 38.692-40.248 40-72.172-11.703 4.1796-32-2-40-8z"/><rect width="20" height="16" x="96" y="92" fill="#ed333b" ry="0"/><path fill="url(#g)" d="m64 24-40 8c1.3086 31.923 6.5884 61.308 40 72.172 33.412-10.864 38.692-40.248 40-72.172l-40-8z"/><rect width="20" height="16" x="12" y="92" fill="#ed333b" ry="0"/><path fill="url(#e)" d="m64 28.18c-35.742 8.0546 0 0-35.742 8.0546 0.79232 14.03 2.4465 27.304 7.2188 38.008 5.1548 11.562 13.565 20.381 28.524 25.586 14.959-5.2048 23.368-14.024 28.524-25.586 4.7724-10.704 6.4264-23.978 7.2188-38.008-5.8016 0.81676-11.97 0.57616-18.008-0.84376-6.928-1.6292-13.054-4.244-17.734-7.2108z"/><path fill="url(#f)" d="m64 28v71.648c14.959-5.2048 23.368-14.024 28.524-25.586 4.7724-10.704 6.4264-23.978 7.2188-38.008-35.743-7.874 8e-4 0.18056-35.742-8.0546z"/></svg>