<svg xmlns="http://www.w3.org/2000/svg" version="1.1" viewBox="0 0 128 128"><linearGradient id="a" x1="6" x2="26" y1="16" y2="16" gradientTransform="scale(4)" gradientUnits="userSpaceOnUse"><stop offset="0" stop-color="#5e5c64"/><stop offset=".05" stop-color="#9a9996"/><stop offset=".1" stop-color="#5e5c64"/><stop offset=".9" stop-color="#5e5c64"/><stop offset=".95" stop-color="#9a9996"/><stop offset="1" stop-color="#5e5c64"/></linearGradient><linearGradient id="b" x1="16" x2="16" y1="3" y2="24" gradientTransform="scale(4)" gradientUnits="userSpaceOnUse"><stop offset="0" stop-color="#c0bfbc"/><stop offset="1" stop-color="#deddda"/></linearGradient><path fill="#26a269" d="M12 12v12c2.216 0 4 1.784 4 4s-1.784 4-4 4v36c2.216 0 4 1.784 4 4s-1.784 4-4 4v8c2.216 0 4 1.784 4 4s-1.784 4-4 4v24h104V92c-2.216 0-4-1.784-4-4s1.784-4 4-4v-8c-2.216 0-4-1.784-4-4s1.784-4 4-4V32c-2.216 0-4-1.784-4-4s1.784-4 4-4V12z"/><path fill="#2ec27e" d="M12 12v8c2.216 0 4 1.784 4 4s-1.784 4-4 4v36c2.216 0 4 1.784 4 4s-1.784 4-4 4v8c2.216 0 4 1.784 4 4s-1.784 4-4 4v24h104V88c-2.216 0-4-1.784-4-4s1.784-4 4-4v-8c-2.216 0-4-1.784-4-4s1.784-4 4-4V28c-2.216 0-4-1.784-4-4s1.784-4 4-4v-8z"/><rect width="88" height="84" x="20" y="20" fill="#f6f5f4" ry="4"/><rect width="80" height="80" x="24" y="20" fill="url(#a)" ry="8"/><rect width="80" height="76" x="24" y="16" fill="url(#b)" ry="8"/><path fill="#f6d32d" d="m12 104 8 8h-8z"/><path fill="#9a9996" d="M56 24h16v16H56zM56 48h16v36H56z" color="#bebebe" overflow="visible"/></svg>