<svg enable-background="new" version="1.0" viewBox="0 0 128 128" xmlns="http://www.w3.org/2000/svg" xmlns:xlink="http://www.w3.org/1999/xlink">
 <title>Adwaita Icon Template</title>
 <defs>
  <linearGradient id="d" x1="27.5" x2="5" y1="15.742" y2="15.742" gradientTransform="matrix(4 0 0 4 0 172.03)" gradientUnits="userSpaceOnUse">
   <stop stop-color="#deddda" offset="0"/>
   <stop stop-color="#fff" offset=".5"/>
   <stop stop-color="#deddda" offset="1"/>
  </linearGradient>
  <linearGradient id="c" x1="20" x2="110" y1="68" y2="68" gradientUnits="userSpaceOnUse">
   <stop stop-color="#e01b24" offset="0"/>
   <stop stop-color="#ed333b" offset=".44565"/>
   <stop stop-color="#e01b24" offset="1"/>
  </linearGradient>
  <linearGradient id="b" x1="10" x2="120" y1="235" y2="235" gradientUnits="userSpaceOnUse">
   <stop stop-color="#9a9996" offset="0"/>
   <stop stop-color="#c0bfbc" offset=".5"/>
   <stop stop-color="#9a9996" offset="1"/>
  </linearGradient>
  <linearGradient id="a" x1="10" x2="120" y1="235" y2="235" gradientUnits="userSpaceOnUse">
   <stop stop-color="#77767b" offset="0"/>
   <stop stop-color="#9a9996" offset=".5"/>
   <stop stop-color="#5e5c64" offset="1"/>
  </linearGradient>
 </defs>
 <g transform="translate(0,-172)">
  <g display="none">
   <text id="context" x="7.9499588" y="148.65199" display="inline" enable-background="new" fill="#000000" font-family="Cantarell" font-size="5.3333px" stroke-width=".33265" style="line-height:125%" xml:space="preserve"><tspan x="7.9499588" y="148.65199" font-size="5.3333px" stroke-width=".33265">apps</tspan></text>
   <text x="7.7533054" y="157.23398" display="inline" enable-background="new" fill="#000000" font-family="Cantarell" font-size="5.3333px" font-weight="bold" stroke-width=".33265" style="line-height:125%" xml:space="preserve"><tspan x="7.7533054" y="157.23398" font-size="5.3333px" stroke-width=".33265">org.gnome.</tspan></text>
   <rect x="9.2651e-8" y="172" width="128" height="128" display="inline" enable-background="accumulate" fill="#f0f0f0"/>
   <g transform="matrix(.25 0 0 .25 6.9489e-8 225)" fill="#2864b0">
    <circle cx="256" cy="44" r="240" opacity=".1" style="paint-order:normal"/>
    <rect x="96" y="-180" width="320" height="448" rx="32" ry="32" opacity=".1" style="paint-order:normal"/>
    <rect x="48" y="-164" width="416" height="416" rx="32" ry="32" display="inline" enable-background="new" opacity=".1" style="paint-order:normal"/>
    <rect x="32" y="-116" width="448" height="320" rx="32" ry="32" display="inline" enable-background="new" opacity=".1" style="paint-order:normal"/>
   </g>
  </g>
  <g>
   <g stroke-width="4">
    <path d="m64 182c-11.2 8.382-39.616 17.839-56 12 1.832 44.596 9.224 84.824 56 100 46.776-15.177 54.168-55.404 56-100-16.384 5.8392-44.8-3.618-56-12z" enable-background="new" fill="url(#a)"/>
    <path d="m64 180.03c-11.2 8.382-39.616 17.839-56 12 1.832 44.596 9.224 84.824 56 100 46.776-15.177 54.168-55.404 56-100-16.384 5.8392-44.8-3.618-56-12z" fill="url(#b)"/>
    <path d="m64 184c-6.284 4.2112-15.217 8.2136-25.195 10.75-9.1508 2.326-18.413 2.9114-26.805 1.2812 1.0374 20.556 3.2216 39.874 10.328 55.592 7.458 16.498 19.843 29.015 41.672 36.406 21.828-7.3916 34.214-19.908 41.672-36.406 7.1064-15.72 9.2908-35.037 10.328-55.592-8.3916 1.6302-17.654 1.0448-26.805-1.2812-9.978-2.5363-18.912-6.5388-25.195-10.75z" fill="url(#d)"/>
   </g>
   <path transform="translate(0,172)" d="m116 24.031c-4.122 0.80077-8.4551 1.0617-12.881 0.84961l-29.797 29.797 2.6777 5.3535h16l4-8h12l-24 48-12-24-6.6777-13.354-13.322-26.646-4-8-24 48h12l4-8h16l1.3223 2.6465-24.961 24.961c7.433 8.7193 17.566 15.625 31.639 20.391 21.828-7.3916 34.213-19.908 41.672-36.406 7.1064-15.72 9.2909-35.037 10.328-55.592zm-68 28 4 8h-8l4-8zm32 16 4 8 4-8h-8z" fill="url(#c)"/>
  </g>
 </g>
</svg>
