<svg xmlns="http://www.w3.org/2000/svg" version="1.0" viewBox="0 0 128 128"><rect width="96" height="52" x="-112" y="60" fill="#c01c28" ry="8" transform="scale(-1,1)"/><rect width="16" height="8" x="-32" y="104" fill="#c01c28" ry="0" transform="scale(-1,1)"/><rect width="88" height="52" x="-112" y="56" fill="#f6f5f4" ry="8" transform="scale(-1,1)"/><rect width="8" height="8" x="-32" y="100" fill="#f6f5f4" ry="0" transform="scale(-1,1)"/><rect width="8" height="8" x="-24" y="16" fill="#e01b24" transform="scale(-1,1)"/><rect width="96" height="48" x="-112" y="52" fill="#c01c28" ry="8" transform="scale(-1,1)"/><rect width="16" height="4" x="-32" y="96" fill="#c01c28" ry="0" transform="scale(-1,1)"/><rect width="96" height="80" x="-112" y="16" fill="#e01b24" ry="8" transform="scale(-1,1)"/><rect width="16" height="4" x="-32" y="92" fill="#e01b24" ry="0" transform="scale(-1,1)"/><path fill="#fff" d="m55 36v6h15c3.324 0 6 2.676 6 6v6h-21c-6.648 0-12 5.352-12 12s5.352 12 12 12h30v-6h-30c-3.324 0-6-2.676-6-6s2.676-6 6-6h21v18h6v-30c0-6.648-5.352-12-12-12z"/><rect width="4" height="80" x="20" y="16" fill="#c01c28" ry="0"/></svg>