<svg version="1.1" viewBox="0 0 32 32" xmlns="http://www.w3.org/2000/svg">
 <linearGradient id="a" x1="6" x2="28" y1="306.53" y2="306.53" gradientUnits="userSpaceOnUse">
  <stop stop-color="#241f31" offset="0"/>
  <stop stop-color="#3d3846" offset=".045"/>
  <stop stop-color="#241f31" offset=".091"/>
  <stop stop-color="#241f31" offset=".909"/>
  <stop stop-color="#3d3846" offset=".955"/>
  <stop stop-color="#241f31" offset="1"/>
 </linearGradient>
 <g transform="translate(-1 -288.53)">
  <rect x="6" y="294.53" width="22" height="24" ry="2" fill="url(#a)"/>
  <rect x="6" y="293.53" width="22" height="21" ry="2" fill="#5e5c64"/>
  <path d="M21 291.533l-1 1H6c-.554 0-1 .446-1 1v2h16v-1h9v-2c0-.554-.446-1-1-1z" fill="#5e5c64"/>
  <path d="M21 293.533l-1 1H6c-.554 0-1 .446-1 1l1 1h22l2-2c0-.554-.446-1-1-1z" fill="#241f31"/>
  <path d="M7 297.533h20v14H7z" fill="#3d3846"/>
  <path d="M8 298.533h18v12H8z" fill="#241f31"/>
  <path d="m8 298.53h12l-3 12h-9z" fill="#fff" opacity=".2"/>
  <path d="m21 298.53h1v12h-1z" fill="#e01b24"/>
  <path d="M9 299.533h16v10H9z" fill="#f6f5f4"/>
  <path d="m10 300.53h1v8h-1zm2 0h1v8h-1zm2 0h1v8h-1zm2 0h1v8h-1zm2 0h1v8h-1zm2 0h1v8h-1zm2 0h1v8h-1z" fill="#deddda"/>
  <path d="m21 299.53h1v10h-1z" fill="#fccdc8"/>
 </g>
 <g fill="#3d3846">
  <rect x="5" y="24" width="11" height="4" ry="1"/>
  <path d="M18 24l2 2-2 2h-4v-4zM5 24h2v2H5z"/>
 </g>
 <rect x="7" y="25" width="3" height="2" ry="0" fill="#26a269"/>
 <path d="M8 27l1-2H7v2z" fill="#fff" opacity=".2"/>
 <rect x="11" y="25" width="1" height="1" ry=".5" fill="#9a9996"/>
 <rect x="13" y="25" width="1" height="1" ry=".5" fill="#9a9996"/>
 <path d="m18 24v4l2-2z" fill="#77767b"/>
</svg>
