<svg xmlns="http://www.w3.org/2000/svg" version="1.1" viewBox="0 0 128 128"><defs><linearGradient id="c" x1="10" x2="10" y1="3" y2="37" gradientTransform="matrix(2,0,0,2,-2e-7,22)" gradientUnits="userSpaceOnUse"><stop offset="0" stop-color="#acaba8"/><stop offset="1" stop-color="#cac9c6"/></linearGradient><linearGradient id="b" x1="3" x2="29" y1="17" y2="17" gradientTransform="scale(4)" gradientUnits="userSpaceOnUse"><stop offset="0" stop-color="#9a9996"/><stop offset=".037" stop-color="#fff"/><stop offset=".077" stop-color="#9a9996"/><stop offset=".923" stop-color="#9a9996"/><stop offset=".962" stop-color="#c0bfbc"/><stop offset="1" stop-color="#9a9996"/></linearGradient><linearGradient id="a" x1="13.17" x2="13" y1="21" y2="11" gradientTransform="matrix(4,0,0,4,0,-4)" gradientUnits="userSpaceOnUse"><stop offset="0" stop-color="#f6f5f4"/><stop offset="1" stop-color="#deddda"/></linearGradient></defs><rect width="104" height="68" x="12" y="40" ry="8"/><rect width="104" height="68" x="12" y="32" fill="url(#b)" ry="8"/><rect width="104" height="68" x="12" y="28" fill="url(#c)" ry="8"/><g fill="#77767b"><rect width="4" height="4" x="108" y="88" ry="2"/><rect width="4" height="4" x="108" y="32" ry="2"/><rect width="4" height="4" x="52" y="32" ry="2"/><rect width="4" height="4" x="20" y="32" ry="2"/><rect width="4" height="4" x="20" y="88" ry="2"/><rect width="4" height="4" x="52" y="88" ry="2"/></g><path fill="#acaba8" d="m32 36a4.0004 4.0004 0 0 0-4 4c0 2.2565-1.7435 4-4 4a4.0004 4.0004 0 0 0-4 4v32a4.0004 4.0004 0 0 0 4 4c2.2565 0 4 1.7435 4 4a4.0004 4.0004 0 0 0 4 4h12a4.0004 4.0004 0 0 0 4-4c0-2.2539 1.7395-3.9959 3.9922-4 0.0426 0.0014 0.08632 0.0052 0.125 8e-3a4.0004 4.0004 0 0 0 0.5625-8e-3h6.5625c5.1433 4.8126 11.847 7.9953 18.898 8 7.3304 0 14.614-3.0198 19.797-8.2031 5.1834-5.1834 8.2031-12.466 8.2031-19.797s-3.0198-14.614-8.2031-19.797c-5.1834-5.1834-12.466-8.2031-19.797-8.2031a4.0004 4.0004 0 0 0-8e-3 0c-7.0417 0.0106-13.73 3.1955-18.867 8h-7.2654c-2.2565 0-4-1.7435-4-4a4.0004 4.0004 0 0 0-4-4z"/><path fill="url(#a)" d="m32 32a4.0004 4.0004 0 0 0-4 4c0 2.2565-1.7435 4-4 4a4.0004 4.0004 0 0 0-4 4v32a4.0004 4.0004 0 0 0 4 4c2.2565 0 4 1.7435 4 4a4.0004 4.0004 0 0 0 4 4h12a4.0004 4.0004 0 0 0 4-4c0-2.2539 1.7395-3.9959 3.9922-4 0.0426 0.0014 0.08632 0.0052 0.125 8e-3a4.0004 4.0004 0 0 0 0.5625-8e-3h6.5625c5.1433 4.8126 11.847 7.9953 18.898 8 7.3304 0 14.614-3.0198 19.797-8.2031 5.1834-5.1834 8.2031-12.466 8.2031-19.797s-3.0198-14.614-8.2031-19.797c-5.1834-5.1834-12.466-8.2031-19.797-8.2031a4.0004 4.0004 0 0 0-8e-3 0c-7.0417 0.0106-13.73 3.1955-18.867 8h-7.2654c-2.2565 0-4-1.7435-4-4a4.0004 4.0004 0 0 0-4-4z"/><rect width="16" height="16" x="72" y="48" fill="#adaba7" fill-opacity=".996" ry="8"/><rect width="16" height="16" x="72" y="52" fill="#cac9c6" fill-opacity=".996" ry="8"/></svg>