<svg version="1.1" viewBox="0 0 32 32" xmlns="http://www.w3.org/2000/svg">
 <linearGradient id="a" x1="4" x2="29" y1="306.03" y2="306.03" gradientUnits="userSpaceOnUse">
  <stop stop-color="#241f31" offset="0"/>
  <stop stop-color="#3d3846" offset=".04"/>
  <stop stop-color="#241f31" offset=".08"/>
  <stop stop-color="#241f31" offset=".92"/>
  <stop stop-color="#3d3846" offset=".96"/>
  <stop stop-color="#241f31" offset="1"/>
 </linearGradient>
 <g transform="translate(0 -288.53)">
  <rect x="4" y="297.53" width="25" height="17" ry="2" fill="url(#a)"/>
  <rect x="4" y="297.53" width="25" height="11" ry="2" fill="#5e5c64"/>
  <g fill="#3d3846">
   <rect x="4" y="306.53" width="11" height="4" ry="1"/>
   <path d="m17 306.53 2 2-2 2h-4v-4zm-13 0h2v2h-2z"/>
  </g>
  <path d="M8 301.533h17v2H8z" fill="#241f31"/>
  <path d="M9 291.533h15v11H9z" fill="#f6f5f4"/>
  <path d="M8 313.533h17v4H8z" fill="#3d3846"/>
  <path d="M8 311.533h17v2H8z"/>
  <path d="m10 312.53h13v4h-13z" fill="#f6f5f4"/>
  <path d="M10 292.533h13v1H10zm0 2h13v1H10zm0 2h13v1H10zm0 2h13v1H10zm0 2h13v1H10z" fill="#deddda"/>
  <rect x="6" y="307.53" width="3" height="2" ry="0" fill="#26a269"/>
  <path d="m7 309.53 1-2h-2v2z" fill="#fff" opacity=".2"/>
  <rect x="10" y="307.53" width="1" height="1" ry=".5" fill="#9a9996"/>
  <rect x="12" y="307.53" width="1" height="1" ry=".5" fill="#9a9996"/>
  <path d="m10 312.53h13v1h-13z" fill="#deddda"/>
  <path d="m17 306.53v4l2-2z" fill="#77767b"/>
 </g>
</svg>
