<svg xmlns="http://www.w3.org/2000/svg" version="1.1" viewBox="0 0 128 128"><radialGradient id="b" cx="64" cy="55.96" r="24" gradientUnits="userSpaceOnUse"><stop offset="0" stop-color="#f8e45c"/><stop offset="1" stop-color="#f6d32d"/></radialGradient><linearGradient id="a" x1="24" x2="104" y1="119.96" y2="119.96" gradientUnits="userSpaceOnUse"><stop offset="0" stop-color="#5e5c64"/><stop offset=".05" stop-color="#9a9996"/><stop offset=".1" stop-color="#5e5c64"/><stop offset=".9" stop-color="#5e5c64"/><stop offset=".95" stop-color="#9a9996"/><stop offset="1" stop-color="#5e5c64"/></linearGradient><g stroke-width="4"><rect width="80" height="104" x="24" y="16" fill="url(#a)" rx="8"/><rect width="80" height="104" x="24" y="8" fill="#9a9996" rx="8"/><rect width="16" height="16" x="76" y="84" fill="#5e5c64" ry="4"/><path fill="#5e5c64" d="m64 40a32 32 0 0 0-32 32 32 32 0 0 0 32 32 32 32 0 0 0 32-32 32 32 0 0 0-32-32z"/><rect width="16" height="16" x="72" y="80" fill="#3d3846" ry="4"/><g fill="#5e5c64"><rect width="16" height="16" x="36" y="44" ry="4"/><rect width="16" height="16" x="76" y="44" ry="4"/><rect width="16" height="16" x="36" y="84" ry="4"/></g><g fill="#3d3846"><circle cx="64" cy="72" r="28"/><rect width="16" height="16" x="40" y="48" ry="4"/><rect width="16" height="16" x="72" y="48" ry="4"/><rect width="16" height="16" x="40" y="80" ry="4"/></g><path fill="url(#b)" d="m64 48a24 24 0 0 0-24 24 24 24 0 0 0 24 24 24 24 0 0 0 24-24 24 24 0 0 0-24-24z"/><path fill="#3d3846" d="m64 60a12 12 0 0 0-12 12 12 12 0 0 0 12 12 12 12 0 0 0 12-12 12 12 0 0 0-12-12z"/><path fill="#e5a50a" d="M64 48a24 24 0 0 0-24 24 24 24 0 0 0 .1 2.008A24 24 0 0 1 64 52a24 24 0 0 1 23.9 21.992A24 24 0 0 0 88 72a24 24 0 0 0-24-24z"/><path fill="#77767b" d="m64 12a12 12 0 0 0-12 12 12 12 0 0 0 12 12 12 12 0 0 0 12-12 12 12 0 0 0-12-12z"/><path fill="#5e5c64" d="m64 16a8 8 0 0 0-8 8 8 8 0 0 0 8 8 8 8 0 0 0 8-8 8 8 0 0 0-8-8z"/><path fill="#3d3846" d="M64 16a8 8 0 0 0-8 8 8 8 0 0 0 .256 1.984A8 8 0 0 1 64 20a8 8 0 0 1 7.744 6.016A8 8 0 0 0 72 24a8 8 0 0 0-8-8z"/></g></svg>