<svg xmlns="http://www.w3.org/2000/svg" version="1.1" viewBox="0 0 128 128"><g stroke-width=".5"><path fill="#cdab8f" d="M16 20L4 40l12 4zm96 0l12 20-12 4zm-96 0h96v88H16z"/><path fill="#dec7b4" d="M16 20h96v80H16z"/><path fill="#73ba25" d="M44 20h68v80H44z"/><path fill="#54881b" d="M44 100h68v8H44z"/><path fill="#dec7b4" d="m16 20-4 32h52v-32z"/></g><g stroke-width=".5"><path fill="#73ba25" d="m42 52h74l-4-32h-68z"/><path fill="#cdab8f" d="M12 52h52v4H12z"/><path fill="#54881b" d="m42 52h74v4h-74z"/></g><g fill="none" stroke-width="8"><path stroke="#cdab8f" d="m68 70 16 16 16-16"/><path stroke="#dec7b4" d="m68 72 16 16 16-16"/><path stroke="#cdab8f" d="m84 82v-26"/><path stroke="#dec7b4" d="m84 84v-28"/></g></svg>