<svg xmlns="http://www.w3.org/2000/svg" version="1.1" viewBox="0 0 32 32"><linearGradient id="a" x1="6" x2="28" y1="306.53" y2="306.53" gradientUnits="userSpaceOnUse"><stop offset="0" stop-color="#241f31"/><stop offset=".045" stop-color="#3d3846"/><stop offset=".091" stop-color="#241f31"/><stop offset=".909" stop-color="#241f31"/><stop offset=".955" stop-color="#3d3846"/><stop offset="1" stop-color="#241f31"/></linearGradient><g transform="translate(-1 -288.53)"><rect width="22" height="24" x="6" y="294.53" fill="url(#a)" ry="2"/><rect width="22" height="21" x="6" y="293.53" fill="#5e5c64" ry="2"/><path fill="#5e5c64" d="M21 291.533l-1 1H6c-.554 0-1 .446-1 1v2h16v-1h9v-2c0-.554-.446-1-1-1z"/><path fill="#241f31" d="M21 293.533l-1 1H6c-.554 0-1 .446-1 1l1 1h22l2-2c0-.554-.446-1-1-1z"/><path fill="#3d3846" d="M7 297.533h20v14H7z"/><path fill="#241f31" d="M8 298.533h18v12H8z"/><path fill="#fff" d="m8 298.53h12l-3 12h-9z" opacity=".2"/><path fill="#e01b24" d="m21 298.53h1v12h-1z"/><path fill="#f6f5f4" d="M9 299.533h16v10H9z"/><path fill="#deddda" d="m10 300.53h1v8h-1zm2 0h1v8h-1zm2 0h1v8h-1zm2 0h1v8h-1zm2 0h1v8h-1zm2 0h1v8h-1zm2 0h1v8h-1z"/><path fill="#fccdc8" d="m21 299.53h1v10h-1z"/></g><g fill="#3d3846"><rect width="11" height="4" x="5" y="24" ry="1"/><path d="M18 24l2 2-2 2h-4v-4zM5 24h2v2H5z"/></g><rect width="3" height="2" x="7" y="25" fill="#26a269" ry="0"/><path fill="#fff" d="M8 27l1-2H7v2z" opacity=".2"/><rect width="1" height="1" x="11" y="25" fill="#9a9996" ry=".5"/><rect width="1" height="1" x="13" y="25" fill="#9a9996" ry=".5"/><path fill="#77767b" d="m18 24v4l2-2z"/></svg>