<svg fill="currentColor" version="1.1" viewBox="0 0 256 256" xmlns="http://www.w3.org/2000/svg"><path d="m65 16a7.0007 7.0007 0 0 0-7 7v42c0 28.371 17.396 52.025 41.754 63-24.354 10.976-41.754 34.63-41.754 63v42a7.0007 7.0007 0 0 0 7 7h126a7.0007 7.0007 0 0 0 7-7v-42c0-28.372-17.395-52.027-41.754-63 24.363-10.972 41.754-34.625 41.754-63v-42a7.0007 7.0007 0 0 0-7-7zm7 14h112v35c0 26.715-18.623 48.944-43.532 54.606a7.0007 7.0007 0 0 0-5.4414 6.8907l0.028 3.1172a7.0007 7.0007 0 0 0 5.4414 6.7813c24.898 5.6697 43.504 27.898 43.504 54.606v35h-112v-35c0-26.718 18.62-48.947 43.532-54.606a7.0007 7.0007 0 0 0 5.4414-6.8086l0.028-3.1445a7.0007 7.0007 0 0 0-5.4687-6.8359c-24.914-5.6567-43.532-27.885-43.532-54.606v-35zm35 28a7 7 0 0 0-7 7c0 15.38 12.619 28 28 28s28-12.619 28-28a7 7 0 0 0-7-7 7 7 0 0 0-7 7c0 7.8149-6.1851 14-14 14s-14-6.1851-14-14a7 7 0 0 0-7-7zm21 105c-15.38 0-28 12.619-28 28a7 7 0 0 0 7 7 7 7 0 0 0 7-7c0-7.8148 6.1851-14 14-14s14 6.1852 14 14a7 7 0 0 0 7 7 7 7 0 0 0 7-7c0-15.38-12.619-28-28-28z"/></svg>
