<?xml version="1.0" encoding="UTF-8" standalone="no"?>
<svg
   xmlns:dc="http://purl.org/dc/elements/1.1/"
   xmlns:cc="http://creativecommons.org/ns#"
   xmlns:rdf="http://www.w3.org/1999/02/22-rdf-syntax-ns#"
   xmlns:svg="http://www.w3.org/2000/svg"
   xmlns="http://www.w3.org/2000/svg"
   xmlns:sodipodi="http://sodipodi.sourceforge.net/DTD/sodipodi-0.dtd"
   xmlns:inkscape="http://www.inkscape.org/namespaces/inkscape"
   fill="currentColor"
   viewBox="0 0 256 256"
   version="1.1"
   id="svg883"
   sodipodi:docname="leapmicro.svg"
   inkscape:version="1.0.1 (3bc2e813f5, 2020-09-07)">
  <metadata
     id="metadata889">
    <rdf:RDF>
      <cc:Work
         rdf:about="">
        <dc:format>image/svg+xml</dc:format>
        <dc:type
           rdf:resource="http://purl.org/dc/dcmitype/StillImage" />
        <dc:title></dc:title>
      </cc:Work>
    </rdf:RDF>
  </metadata>
  <defs
     id="defs887" />
  <sodipodi:namedview
     pagecolor="#ffffff"
     bordercolor="#666666"
     borderopacity="1"
     objecttolerance="10"
     gridtolerance="10"
     guidetolerance="10"
     inkscape:pageopacity="0"
     inkscape:pageshadow="2"
     inkscape:window-width="1424"
     inkscape:window-height="749"
     id="namedview885"
     showgrid="false"
     inkscape:zoom="1.6621094"
     inkscape:cx="115.02578"
     inkscape:cy="207.01146"
     inkscape:window-x="2148"
     inkscape:window-y="267"
     inkscape:window-maximized="0"
     inkscape:current-layer="svg883"
     inkscape:document-rotation="0" />
  <path
     d="m 127.62,50.574 a 5.6563417,5.6563417 0 0 0 -3.99901,1.656991 L 68.72032,107.13146 H 42.78267 a 5.655856,5.655856 0 0 0 -5.65585,5.65595 5.655856,5.655856 0 0 0 5.65585,5.65603 h 25.93765 l 54.90067,54.9005 a 5.6563417,5.6563417 0 0 0 7.99792,0 l 54.90043,-54.9005 h 25.93741 a 5.655856,5.655856 0 0 0 5.65621,-5.65603 5.655856,5.655856 0 0 0 -5.65621,-5.65595 H 186.51934 L 131.61891,52.230991 A 5.6563417,5.6563417 0 0 0 127.62,50.574 Z m 0,13.653237 48.56118,48.561013 L 127.62,161.34947 79.0589,112.78825 Z m 0,25.937756 A 22.62343,22.62343 0 0 0 104.99659,112.78825 22.62343,22.62343 0 0 0 127.62,135.41164 22.62343,22.62343 0 0 0 150.24313,112.78825 22.62343,22.62343 0 0 0 127.62,90.164993 Z m 0,11.311707 A 11.311693,11.311693 0 0 1 138.93174,112.78825 11.311693,11.311693 0 0 1 127.62,124.10018 11.311693,11.311693 0 0 1 116.30809,112.78825 11.311693,11.311693 0 0 1 127.62,101.4767 Z m -56.55881,33.93494 a 5.655856,5.655856 0 0 0 -3.99887,1.65711 5.655856,5.655856 0 0 0 0,7.99792 l 60.55666,60.55633 60.55645,-60.55633 a 5.655856,5.655856 0 0 0 0,-7.99792 5.655856,5.655856 0 0 0 -7.99782,0 l -52.55889,52.55929 -52.55916,-52.55929 a 5.655856,5.655856 0 0 0 -3.99908,-1.65711 z"
     id="path2"
     style="stroke-width:1.61603" />
</svg>
