<svg fill="currentColor" version="1.1" viewBox="0 0 256 256" xmlns="http://www.w3.org/2000/svg">
 <path d="m128 36a6.937 6.937 0 0 0-4.5788 2.005l-76.299 76.299a6.937 6.937 0 0 0 0 9.8079l76.299 76.299a6.937 6.937 0 0 0 9.8079 0l76.299-76.299a6.937 6.937 0 0 0 0-9.8079l-76.299-76.299a6.937 6.937 0 0 0-5.2294-2.005zm0.32517 16.717 66.491 66.491-66.491 66.491-66.491-66.491zm-83.235 108.1v6.9363a6.9363 6.9363 0 0 0 2.0322 4.9041l76.299 76.299a6.937 6.937 0 0 0 9.8079 0l76.299-76.299a6.9363 6.9363 0 0 0 2.032-4.9041 6.9363 6.9363 0 0 0 0-0.32514v-6.6111h-6.9362a6.9363 6.9363 0 0 0-4.9041 2.0321l-71.395 71.395-71.395-71.395a6.9363 6.9363 0 0 0-4.9042-2.005v-0.0271z"/>
</svg>
