<?xml version="1.0" encoding="UTF-8"?>
<svg fill="currentColor" version="1.1" viewBox="0 0 256 256" xmlns="http://www.w3.org/2000/svg" xmlns:cc="http://creativecommons.org/ns#" xmlns:dc="http://purl.org/dc/elements/1.1/" xmlns:rdf="http://www.w3.org/1999/02/22-rdf-syntax-ns#">
 <metadata>
  <rdf:RDF>
   <cc:Work rdf:about="">
    <dc:format>image/svg+xml</dc:format>
    <dc:type rdf:resource="http://purl.org/dc/dcmitype/StillImage"/>
    <dc:title/>
   </cc:Work>
  </rdf:RDF>
 </metadata>
 <path d="m127.62 50.574a5.6563 5.6563 0 0 0-3.999 1.657l-54.901 54.9h-25.938a5.6559 5.6559 0 0 0-5.6558 5.656 5.6559 5.6559 0 0 0 5.6558 5.656h25.938l54.901 54.9a5.6563 5.6563 0 0 0 7.9979 0l54.9-54.9h25.937a5.6559 5.6559 0 0 0 5.6562-5.656 5.6559 5.6559 0 0 0-5.6562-5.656h-25.937l-54.9-54.9a5.6563 5.6563 0 0 0-3.9989-1.657zm0 13.653 48.561 48.561-48.561 48.561-48.561-48.561zm0 25.938a22.623 22.623 0 0 0-22.623 22.623 22.623 22.623 0 0 0 22.623 22.623 22.623 22.623 0 0 0 22.623-22.623 22.623 22.623 0 0 0-22.623-22.623zm0 11.312a11.312 11.312 0 0 1 11.312 11.312 11.312 11.312 0 0 1-11.312 11.312 11.312 11.312 0 0 1-11.312-11.312 11.312 11.312 0 0 1 11.312-11.312zm-56.559 33.935a5.6559 5.6559 0 0 0-3.9989 1.6571 5.6559 5.6559 0 0 0 0 7.9979l60.557 60.556 60.556-60.556a5.6559 5.6559 0 0 0 0-7.9979 5.6559 5.6559 0 0 0-7.9978 0l-52.559 52.559-52.559-52.559a5.6559 5.6559 0 0 0-3.9991-1.6571z" stroke-width="1.616"/>
</svg>
