<?xml version="1.0" encoding="UTF-8"?>
<svg fill="currentColor" version="1.1" viewBox="0 0 256 256" xmlns="http://www.w3.org/2000/svg">
 <path d="m128 16.002c-61.774 0-112 50.229-112 112 0 1.4472 0.0364 2.8908 0.1092 4.3202 2.275 59.779 51.566 107.68 111.89 107.68 61.774 0 112-50.229 112-112 0-61.774-50.229-112-112-112zm0 14c54.206 0 98.002 43.796 98.002 98.002 0 54.206-43.796 98.002-98.002 98.002-22.486 0-43.173-7.5464-59.693-20.235 9.7897 4.0064 20.48 6.2346 31.692 6.2346 46.31 0 84.002-37.691 84.002-84.002 0-30.845-25.156-56.001-56.001-56.001-30.845 0-56.001 25.156-56.001 56.001 0 23.113 18.888 42.001 42.001 42.001 3.866 0 7.0001-3.1342 7.0001-7.0001 0-3.8659-3.1342-7.0002-7.0001-7.0002-15.547 0-28.001-12.453-28.001-28.001 0-23.28 18.721-42.001 42.001-42.001 23.28 0 42.001 18.721 42.001 42.001 0 38.743-31.258 70.001-70.001 70.001-37.43 0-67.871-29.179-69.892-66.091-0.0504-1.2969-0.1092-2.6008-0.1092-3.9103 0-54.206 43.796-98.002 98.002-98.002z" stroke-width=".87502"/>
</svg>
