<?xml version="1.0" encoding="UTF-8" standalone="no"?>
<svg
   width="24"
   height="24"
   fill="currentColor"
   version="1.1"
   id="svg2"
   sodipodi:docname="agama.svg"
   inkscape:version="1.3.2 (091e20ef0f, 2023-11-25)"
   xmlns:inkscape="http://www.inkscape.org/namespaces/inkscape"
   xmlns:sodipodi="http://sodipodi.sourceforge.net/DTD/sodipodi-0.dtd"
   xmlns="http://www.w3.org/2000/svg"
   xmlns:svg="http://www.w3.org/2000/svg">
  <defs
     id="defs2" />
  <sodipodi:namedview
     id="namedview2"
     pagecolor="#505050"
     bordercolor="#eeeeee"
     borderopacity="1"
     inkscape:showpageshadow="0"
     inkscape:pageopacity="0"
     inkscape:pagecheckerboard="0"
     inkscape:deskcolor="#505050"
     inkscape:zoom="17.270833"
     inkscape:cx="17.949337"
     inkscape:cy="11.898673"
     inkscape:window-width="1920"
     inkscape:window-height="1011"
     inkscape:window-x="0"
     inkscape:window-y="32"
     inkscape:window-maximized="1"
     inkscape:current-layer="svg2" />
  <path
     d="M19.316 11.428c.008.016.012.03.017.048a2.514 2.514 0 0 1-.657 2.374l-8.13 8.13a2.624 2.624 0 0 1-1.859.767 2.616 2.616 0 0 1-1.859-.768L5.67 20.82c-.025.012-.056-.032-.058-.06l-2.82-2.815-1.104-1.104a2.631 2.631 0 0 1-.77-1.864c0-.677.257-1.352.77-1.865l8.087-8.088a2.573 2.573 0 0 1 2.517-.646l.017.006 3.05-3.05.181-.182.027-.026c.261-.265.604-.395.948-.395.343 0 .686.13.947.39l5.132 5.133c.26.26.391.605.391.948 0 .343-.13.688-.39.947l-.208.208a1.804 1.804 0 0 1-.143.128l.023-.006zm-4.432-8.815-3.632 3.634a1.071 1.071 0 0 0 0 1.514l4.705 4.705c.208.207.482.312.757.312.274 0 .549-.105.757-.312l1.302-1.303 2.33-2.33a1.648 1.648 0 0 1-1.041-.474l-4.704-4.707a1.64 1.64 0 0 1-.474-1.04Zm2.059-.6 4.747 4.746a.617.617 0 0 1-.871.871L16.07 2.884a.617.617 0 0 1 .871-.871zm5.246 4.645-5.132-5.132a.765.765 0 0 0-.543-.223.764.764 0 0 0-.544.223l-.208.21a1.071 1.071 0 0 0 0 1.514l4.706 4.705c.208.208.482.312.757.312.274 0 .549-.104.756-.312l.208-.208a.765.765 0 0 0 .225-.543.766.766 0 0 0-.225-.546zm-12.981-.26L2.09 13.513a2.06 2.06 0 0 0-.603 1.463c0 .53.2 1.06.603 1.462l5.14 5.14c.4.4.928.6 1.454.6.529 0 1.057-.2 1.455-.6l7.007-7.007a1.816 1.816 0 0 1-1.72-.474l-5.8-5.804a1.814 1.814 0 0 1-.42-1.897z"
     style="fill-opacity:1;stroke-width:1;stroke-dasharray:none"
     id="path1" />
  <path
     d="m 8.2377831,10.654 v 1.25554 C 6.040999,12.078145 4.26,13.814946 4.26,16.055927 c 0.0018,2.039345 1.6536102,3.692618 3.6929532,3.696228 1.5665595,0 2.8433778,-1.276819 2.8433778,-2.843378 -0.0027,-0.31323 -0.256421,-0.566242 -0.569657,-0.568021 v 0.568021 c 0,1.26045 -1.0149073,2.27372 -2.2737208,2.27372 -1.7269797,0.0018 -3.1269207,-1.399593 -3.1232954,-3.12657 -0.00362,-2.04159 1.6513613,-3.698043 3.6929539,-3.696227 h 0.284829 v -1.134405 h 1.7024243 c 1.132768,0 1.708974,0.844665 1.708974,1.702425 v 0.569659 l -0.773388,-0.0064 c 0.206256,-0.206256 0.20373,-0.250526 0.20373,-0.561547 -0.0018,-0.627844 -0.509838,-1.13662 -1.137679,-1.139315 -0.6275733,0.0027 -1.1351463,0.511737 -1.1360413,1.139315 0,0.623677 0.510728,1.137679 1.1360413,1.137679 h 2.275357 v -1.137679 c 0,-1.129493 -0.849576,-2.275357 -2.275357,-2.275357 z m 2.2737189,1.7057 c 0.315931,0 0.568021,0.252089 0.568021,0.569657 9.1e-4,0.314085 -0.253935,0.56893 -0.568021,0.568022 -0.314205,0.0018 -0.5691293,-0.253823 -0.5663843,-0.568022 0,-0.317568 0.2488173,-0.569657 0.5663843,-0.569657 z m -2.2737189,0.569657 c 0,1.129495 0.8463016,2.272084 2.2737189,2.272084 h 1.137679 c 0.313237,-0.0018 0.566979,-0.254791 0.569658,-0.568022 h -1.707337 c -1.1311293,0 -1.7040613,-0.844664 -1.7040613,-1.704062 z m 0.5696576,2.272084 c -0.9396088,0 -1.7073366,0.769365 -1.7073366,1.707336 0.00271,0.783977 0.6385271,1.418338 1.4225076,1.419234 0.627205,-0.0027 1.134988,-0.510474 1.137678,-1.137679 -0.0027,-0.469631 -0.383214,-0.849425 -0.852849,-0.851213 -0.31387,0.0018 -0.5678696,0.255789 -0.5696576,0.569658 h 0.5696576 c 0.157535,-0.0038 0.286726,0.123988 0.284829,0.281555 0.0028,0.315748 -0.253909,0.572415 -0.569658,0.569657 -0.4747145,0 -0.851213,-0.376497 -0.851213,-0.851212 0,-0.630225 0.5041794,-1.137679 1.136042,-1.137679 h 0.56802 c -0.0018,-0.313236 -0.25479,-0.566977 -0.56802,-0.569657 z"
     style="fill-opacity:1;stroke-width:1.9336;stroke-dasharray:none"
     id="path2"
     sodipodi:nodetypes="ccccccscccccsscccccscsscscccscsccscccccccccccsscc" />
</svg>
