<svg fill="currentColor" version="1.1" viewBox="0 0 24 24" width="24" height="24" xmlns="http://www.w3.org/2000/svg">
  <path d="m19.469 0c-4.9929 0-5.9315 7.1121-3.1226 7.1121 2.8084-1e-7 8.1158-7.1121 3.1226-7.1121zm-7.9665 0.88626c-2.8099 0.36466-1.8208 5.2504-0.32472 5.342 1.4956 0.091503 3.1355-5.7068 0.32472-5.342zm-4.7072 1.9239c-0.12323 0.015-0.2544 0.048924-0.39553 0.10743-2.2585 0.93198-0.34229 4.7803 0.92288 4.5217 1.1871-0.24196 1.3209-4.8253-0.52737-4.629zm-3.5084 3.0104c-0.19636 0-0.4087 0.058396-0.63479 0.21486-1.8078 1.2491 0.60634 4.2668 1.6699 3.799 0.9307-0.40982 0.3393-3.9673-1.0352-4.0138zm10.323 2.3097c-3.8758-0.066-8.9868 1.8767-9.8587 5.7815-0.94431 4.2254 3.8849 10.088 8.9261 10.088 2.48 0 5.344-2.2367 5.8791-5.0734 0.40874-2.1628-4.8117-1.2964-4.6242 0.13428 0.22466 1.7158-1.2573 2.5611-2.7101 1.4552-4.6245-3.5208 7.6555-5.2756 6.846-10.086-0.25198-1.4971-2.1327-2.2608-4.4582-2.2998z"/>
</svg>
