<?xml version="1.0" encoding="UTF-8" standalone="no"?>
<svg
   viewBox="0 0 24 24"
   width="24"
   height="24"
   fill="currentColor"
   version="1.1"
   id="svg1"
   xmlns="http://www.w3.org/2000/svg"
   xmlns:svg="http://www.w3.org/2000/svg">
  <defs
     id="defs1" />
  <g
     id="g1"
     transform="translate(0.0071538,-2.6349049)">
    <path
       class="cls-2"
       d="M 19.659891,19.675579 H 14.52162 a 0.64996879,0.64230227 0 0 1 -0.562781,-0.321094 l -2.569073,-4.397348 a 0.64960879,0.64194651 0 0 1 0,-0.642187 L 13.958839,9.917665 A 0.64996619,0.6422997 0 0 1 14.52162,9.5965714 h 5.138271 a 0.64996619,0.6422997 0 0 1 0.562782,0.3210936 l 2.569073,4.397285 a 0.64960227,0.64194007 0 0 1 0,0.642187 l -2.569073,4.397348 a 0.64996879,0.64230227 0 0 1 -0.562782,0.321094 z m -4.763083,-1.284374 h 4.387896 l 2.193885,-3.755162 -2.193885,-3.755097 H 14.89681 l -2.193886,3.755097 z"
       id="path1-5"/>
    <path
       class="cls-2"
       d="M 18.159141,17.106769 H 16.022497 A 0.64996879,0.64230227 0 0 1 15.459716,16.785676 L 14.391395,14.9572 a 0.64960879,0.64194651 0 0 1 0,-0.642187 l 1.068321,-1.8286 a 0.64996619,0.6422997 0 0 1 0.562781,-0.321094 h 2.136644 a 0.64997013,0.64230359 0 0 1 0.562782,0.321094 l 1.06832,1.8286 a 0.64960227,0.64194007 0 0 1 0,0.642187 l -1.06832,1.828476 a 0.64997271,0.64230614 0 0 1 -0.562782,0.321093 z m -1.761455,-1.284373 h 1.386264 l 0.693132,-1.18629 -0.693132,-1.186414 h -1.386264 l -0.693132,1.186414 z"
       id="path2" />
    <path
       class="cls-2"
       d="M 5.5452876,19.675579 H 4.325799 A 0.64997138,0.64230483 0 0 1 3.763017,19.354485 L 1.1939464,14.957137 a 0.64960227,0.64194007 0 0 1 0,-0.642187 L 3.7630183,9.917665 A 0.64996879,0.64230227 0 0 1 4.3258006,9.5965714 h 1.219487 a 0.64985245,0.6421873 0 0 1 0,1.2843746 H 4.7009883 l -2.1938855,3.755097 2.1938855,3.755162 h 0.8442993 a 0.64985215,0.642187 0 1 1 0,1.284374 z"
       id="path3" />
    <path
       class="cls-2"
       d="M 8.9439358,19.675579 H 7.7244484 A 0.64997271,0.64230614 0 0 1 7.1616665,19.354485 L 4.5925943,14.957137 a 0.64960879,0.64194651 0 0 1 0,-0.642187 L 7.1616665,9.917665 A 0.64997013,0.64230359 0 0 1 7.7244484,9.5965714 h 1.2194874 a 0.64985245,0.6421873 0 0 1 0,1.2843746 H 8.0996366 l -2.1938844,3.755097 2.1938844,3.755162 h 0.8442992 a 0.64985215,0.642187 0 0 1 0,1.284374 z"
       id="path4" />
    <path
       class="cls-2"
       d="M 12.342458,19.675579 H 11.123099 A 0.64996879,0.64230227 0 0 1 10.560317,19.354485 L 7.9912437,14.957137 a 0.64960227,0.64194007 0 0 1 0,-0.642187 L 10.560317,9.917665 a 0.64996619,0.6422997 0 0 1 0.562782,-0.3210936 h 1.219359 a 0.64985245,0.6421873 0 0 1 0,1.2843746 h -0.844173 l -2.1938845,3.755097 2.1938845,3.755162 h 0.844173 a 0.64985215,0.642187 0 1 1 0,1.284374 z"
       id="path5" />
    <path
       class="cls-2"
       d="M 16.023133,13.449817 A 0.64953598,0.64187456 0 0 1 15.45971,13.128595 l -1.500877,-2.568746 a 0.64985181,0.64218667 0 1 1 1.125561,-0.6421877 l 1.500879,2.5687467 a 0.6500559,0.64238835 0 0 1 -0.562146,0.963409 z"
       id="path6" />
    <path
       class="cls-2"
       d="m 18.158506,13.449817 a 0.6500559,0.64238835 0 0 1 -0.562148,-0.963409 l 1.500753,-2.5687467 a 0.64985181,0.64218667 0 1 1 1.125562,0.6421877 l -1.50075,2.568746 a 0.6495373,0.64187587 0 0 1 -0.563417,0.321222 z"
       id="path7" />
    <path
       class="cls-2"
       d="m 22.228964,15.278292 h -3.001503 a 0.64985186,0.64218672 0 0 1 0,-1.284373 h 3.001503 a 0.64985186,0.64218672 0 0 1 0,1.284373 z"
       id="path8" />
    <path
       class="cls-2"
       d="m 14.954177,15.278292 h -3.00163 a 0.64985186,0.64218672 0 1 1 0,-1.284373 h 3.00163 a 0.64985186,0.64218672 0 1 1 0,1.284373 z"
       id="path9" />
    <path
       class="cls-2"
       d="m 14.520986,19.675703 a 0.6500559,0.64238835 0 0 1 -0.562147,-0.963408 l 1.500877,-2.56881 a 0.64985181,0.64218667 0 1 1 1.125563,0.642187 l -1.500877,2.568809 a 0.64953598,0.64187456 0 0 1 -0.563416,0.321222 z"
       id="path10" />
    <path
       class="cls-2"
       d="m 19.660527,19.675703 a 0.64953598,0.64187456 0 0 1 -0.563421,-0.321222 l -1.500748,-2.568805 a 0.64985181,0.64218667 0 0 1 1.125565,-0.642186 l 1.50075,2.568809 a 0.6500559,0.64238835 0 0 1 -0.562146,0.963408 z"
       id="path11" />
    <path
       class="cls-2"
       d="M 12.19472,15.278231 H 1.7567281 a 0.64985265,0.6421875 0 0 1 0,-1.284375 H 12.19472 a 0.64985265,0.6421875 0 0 1 0,1.284375 z"
       id="path12" />
  </g>
</svg>
