<svg fill="currentColor" version="1.1" viewBox="0 0 24 24" width="24" height="24" xmlns="http://www.w3.org/2000/svg">
  <path d="m13.831 1-3.6592 0.34929v15.069l3.6218-0.54384v-6.4254l4.8665 7.1263 3.8163-1.2073-4.9837-6.8543 5.0212-6.4629-3.8913-0.89547-4.8289 6.4652 0.03751-6.6199zm-8.2937 3.6686c-0.041306 0.00575-0.081497 0.02079-0.11252 0.053916l-1.4346 1.437c-0.060433 0.060347-0.072764 0.15393-0.028131 0.22738l1.6808 2.7684c-0.29824 0.50135-0.53707 1.0424-0.70794 1.6129l-3.0873 0.64231c-0.085896 0.01742-0.14769 0.09498-0.14769 0.18284v2.03c0 0.08555 0.060251 0.1589 0.14299 0.1805l2.9959 0.73139c0.15978 0.66036 0.40647 1.2881 0.73373 1.8636l-1.7347 2.6442c-0.048609 0.07403-0.039051 0.17248 0.023441 0.23442l1.437 1.4346c0.060421 0.06049 0.15374 0.07133 0.22738 0.02813l2.7192-1.6503c0.53384 0.30793 1.1098 0.55049 1.7182 0.71497l0.63292 3.0475c0.01786 0.08555 0.09527 0.14769 0.18284 0.14769h2.03c0.08536 0 0.16036-0.05945 0.1805-0.143l0.74779-3.0544c0.62723-0.16938 1.2206-0.42077 1.7676-0.7431l2.6771 1.7558c0.07366 0.05041 0.17192 0.04083 0.23442-0.0211l1.4346-1.437c0.06096-0.06049 0.07277-0.15393 0.02813-0.22738l-0.97752-1.6104-0.31646 0.1008c-0.0461 0.0144-0.09701-0.0072-0.12425-0.04454 0 0-0.6222-0.9123-1.4277-2.091-0.96279 1.8843-2.9232 3.174-5.1853 3.174-3.2138 0-5.8183-2.6043-5.8183-5.8183 0-2.3642 1.4098-4.3987 3.4342-5.3119v-1.5003c-0.36844 0.12905-0.7236 0.28433-1.0619 0.46883h-0.00234l-2.7403-1.7979c-0.036899-0.027365-0.080532-0.028129-0.12189-0.028129v-0.00234z"/>
</svg>
