<svg version="1.1" width="24" height="24" viewBox="0 0 24 24" xmlns="http://www.w3.org/2000/svg" fill="currentColor">
 <path d="m12 0 2.3877 2.5137-2.3877 1.0049-2.3877-1.0049zm-4.2715 2.8887 2.6074 1.0986-3.7383 1.667zm8.543 0 1.1309 2.7656-3.7383-1.667zm-4.2715 1.5088 5.5283 2.4023-5.5283 2.3496-5.5283-2.3496zm-7.5674 2.5957 5.9326 2.6133-5.9033 2.5811zm15.135 0-0.0293 5.1943-5.9033-2.5811zm-7.5674 3.1143 6.2783 2.7451-6.2783 2.5664-6.2783-2.5664zm-8.8799 2.71 7.4619 3.0645-5.1328 2.335zm17.76 0-2.3291 5.3994-5.1328-2.335zm-8.8799 3.5332 5.5664 2.4961-4.9395 2.1826v2.9707h-1.2539v-2.9707l-4.9395-2.1826z"/>
</svg>
