<svg version="1.1" width="24" height="24" viewBox="0 0 24 24" xmlns="http://www.w3.org/2000/svg" fill="currentColor">
 <path d="m7.688-9.4e-8c-0.12136 0.0037663-0.25215 0.049047-0.40037 0.16601-0.36315-0.14004-0.71638-0.18939-1.0312 0.095704-0.48621-0.063067-0.64395 0.066813-0.76366 0.21875-0.10673-0.0022131-0.79789-0.10811-1.1152 0.36523-0.79742-0.094359-1.0492 0.46874-0.76366 0.99412-0.16286 0.25213-0.33204 0.49979 0.048829 0.98044-0.13473 0.2677-0.051757 0.55871 0.26562 0.91016-0.08376 0.37633 0.081637 0.64267 0.37693 0.8496-0.055231 0.51498 0.47139 0.81322 0.62889 0.91992 0.060482 0.30007 0.18655 0.58366 0.78904 0.74022 0.099362 0.44718 0.46184 0.52528 0.81248 0.61913-1.1589 0.67366-2.1532 1.5595-2.1465 3.7345l-0.16992 0.30273c-1.3289 0.80812-2.5239 3.4062-0.65428 5.5174 0.12212 0.66085 0.3274 1.1348 0.50975 1.6601 0.27274 2.1169 2.052 3.1073 2.5214 3.2246 0.68798 0.52404 1.4205 1.0228 2.4121 1.3711 0.9347 0.96401 1.9486 1.3307 2.9668 1.33 0.01493-9e-6 0.02999 1.68e-4 0.04492 0 1.0182 6.34e-4 2.0301-0.366 2.9648-1.33 0.99151-0.3483 1.7241-0.84705 2.4121-1.3711 0.46948-0.11722 2.2507-1.1077 2.5234-3.2246 0.18234-0.52535 0.38568-0.99929 0.50781-1.6601 1.8695-2.1113 0.67463-4.7092-0.65428-5.5174l-0.16992-0.30273c0.006732-2.1746-0.98752-3.0605-2.1464-3.7345 0.35064-0.093836 0.71312-0.17193 0.81248-0.61913 0.6025-0.15659 0.72858-0.44017 0.78904-0.74022 0.15753-0.10668 0.68412-0.40493 0.62889-0.91992 0.29531-0.20695 0.4607-0.4733 0.37693-0.8496 0.31738-0.35145 0.40037-0.64244 0.26562-0.91016 0.38092-0.48045 0.21146-0.72832 0.048829-0.98044 0.28536-0.52538 0.034062-1.0885-0.76366-0.99412-0.31721-0.47334-1.0082-0.36744-1.1152-0.36523-0.11971-0.15193-0.27745-0.28181-0.76366-0.21875-0.31486-0.2851-0.66809-0.23575-1.0312-0.095704-0.43122-0.34028-0.71507-0.067979-1.041 0.035155-0.52209-0.1706-0.6419 0.063044-0.89842 0.1582-0.56937-0.12032-0.74267 0.14149-1.0156 0.41798l-0.31836-0.005859c-0.85879 0.5061-1.2843 1.5366-1.4355 2.0664-0.1513-0.52987-0.57692-1.5604-1.4355-2.0664l-0.31836 0.005859c-0.27329-0.27647-0.44624-0.53829-1.0156-0.41798-0.25652-0.095157-0.37599-0.3288-0.89842-0.1582-0.21392-0.067684-0.40896-0.20836-0.64063-0.20117zm8.6385 0.6074c-0.11924 0.14743-0.28607 0.29157-0.10937 0.46093 0.24354-0.15439 0.48997-0.30823 1.0684-0.41798-0.13034 0.14752-0.3997 0.29584-0.23633 0.44336 0.30578-0.11857 0.64318-0.20587 1.0176-0.25586-0.17927 0.14969-0.32857 0.29616-0.18164 0.41211 0.32724-0.1022 0.77818-0.2397 1.2187-0.12109l-0.2793 0.28515c-0.03095 0.038133 0.6525 0.030412 1.1035 0.03711-0.16459 0.23211-0.33169 0.45681-0.42968 0.85547 0.0447 0.045976 0.26778 0.020434 0.4785 0-0.21608 0.4618-0.59207 0.57776-0.67969 0.77539 0.13202 0.10146 0.31544 0.07485 0.51562 0.00586-0.15556 0.32536-0.48242 0.54845-0.74022 0.81248 0.06519 0.046958 0.17962 0.075511 0.44923 0.042968-0.23818 0.25699-0.52615 0.49185-0.86717 0.70313 0.06039 0.070843 0.26828 0.06755 0.46093 0.072265-0.3089 0.30692-0.70551 0.46522-1.0781 0.66601 0.18573 0.12881 0.31872 0.099412 0.46093 0.097655-0.26353 0.21979-0.71289 0.33412-1.1289 0.4668 0.07912 0.12482 0.15898 0.15831 0.32812 0.19336-0.44031 0.24737-1.0721 0.13531-1.25 0.26172 0.04294 0.12433 0.1654 0.20392 0.31054 0.27148-0.70887 0.041781-2.6479-0.026183-3.0195-1.5156 0.72563-0.80946 2.0499-1.7588 4.328-2.9335-1.7726 0.60227-3.3723 1.405-4.7109 2.5097-1.5736-0.74381-0.48843-2.6184 0.27929-3.3633 0.03893 0.19668 0.08246 0.32075 0.13281 0.35742 0.24998-0.27201 0.45553-0.55073 0.77734-0.81248 1e-3 0.15374-0.07635 0.31942 0.11523 0.44142 0.17252-0.23563 0.4052-0.44457 0.71484-0.62302-0.14914 0.2611-0.02549 0.33904 0.05469 0.44725 0.2365-0.20585 0.46036-0.41466 0.89648-0.57618zm-8.6093 0.001953c0.43612 0.16152 0.66192 0.36835 0.89842 0.5742 0.080182-0.10821 0.20383-0.18616 0.054687-0.44725 0.30964 0.17848 0.54231 0.3874 0.71484 0.62302 0.19158-0.12199 0.11419-0.28766 0.11523-0.44142 0.32179 0.26177 0.52541 0.54047 0.77539 0.81248 0.050355-0.036664 0.093883-0.16074 0.13281-0.35742 0.76772 0.74481 1.8529 2.6194 0.2793 3.3633-1.3393-1.1045-2.9384-1.9075-4.7109-2.5097 2.2784 1.1747 3.6044 2.1243 4.33 2.9335-0.3716 1.4894-2.3106 1.5574-3.0195 1.5156 0.14514-0.067557 0.26565-0.14715 0.30859-0.27148-0.17787-0.12641-0.80772-0.01435-1.248-0.26172 0.16914-0.035041 0.24705-0.068539 0.32617-0.19336-0.416-0.13268-0.86342-0.247-1.1269-0.4668 0.14222 0.0017571 0.2752 0.031158 0.46093-0.097655-0.37261-0.2008-0.77117-0.35909-1.0801-0.66601 0.19265-0.0047153 0.40054-0.0014218 0.46093-0.072265-0.34102-0.21128-0.62899-0.44614-0.86717-0.70313 0.2696 0.032544 0.38404 0.0039896 0.44923-0.042968-0.25779-0.26404-0.58466-0.48712-0.74022-0.81248 0.20017 0.068992 0.38361 0.095606 0.51562-0.0058594-0.087599-0.19762-0.46164-0.31356-0.67772-0.77539 0.21073 0.020434 0.4338 0.045976 0.4785 0-0.097813-0.39849-0.26703-0.62336-0.43162-0.85547 0.45101-0.00671 1.1345 0.00102 1.1035-0.03711l-0.27734-0.28515c0.44054-0.11861 0.89148 0.020849 1.2187 0.12305 0.14693-0.11594-0.0043226-0.26437-0.18359-0.41405 0.37438 0.049983 0.71373 0.13729 1.0195 0.25586 0.16338-0.14752-0.10598-0.29584-0.23633-0.44336 0.57839 0.10974 0.82284 0.26357 1.0664 0.41798 0.17669-0.16936 0.0098648-0.31155-0.10937-0.45899zm4.2696 6.1347c1.1159-0.012273 2.4977 0.83283 2.4922 1.6289-0.004862 0.70263-0.96934 1.2706-2.4824 1.2598-1.4816-0.017671-2.48-0.7137-2.4765-1.3945 0.0029173-0.56032 1.2092-1.5268 2.4668-1.4941zm-3.7968 0.47267c0.24946-0.0046499 0.50808 0.016074 0.77147 0.060545 0.77627 0.13044-3.7197 4.0554-3.7891 3.1796-0.061907-1.999 1.2713-3.2076 3.0175-3.2402zm7.3633 0.068358c1.7461 0.032501 3.0814 1.2411 3.0195 3.2402-0.06931 0.87589-4.5674-3.0512-3.7911-3.1816 0.26337-0.04447 0.52203-0.063235 0.77147-0.058594zm-0.79883 2.4375a2.8881 2.4478 55.966 0 1 1.955 5.1659 2.8881 2.4478 55.966 1 1-3.1836-4.8182 2.8881 2.4478 55.966 0 1 1.2285-0.34766zm-5.5096 0.13477a2.4478 2.8881 34.034 0 1 1.2285 0.34766 2.4478 2.8881 34.034 1 1-3.1836 4.8182 2.4478 2.8881 34.034 0 1 1.955-5.1659zm9.6854 1.4922c2.0259 1.1569 1.6747 3.7304 0.58202 4.6093-0.99338 0.44128-1.803-4.9366-0.58202-4.6093zm-14.109 0.06641c1.2209-0.32727 0.41332 5.0506-0.58007 4.6093-1.0927-0.87887-1.4458-3.4525 0.58007-4.6093zm7.1795 3.4491a2.7292 2.5166 0 0 1 2.7812 2.5293 2.7295 2.5169 0 1 1-5.459 0 2.7292 2.5166 0 0 1 2.6777-2.5293zm6.084 0.94922c0.21318-0.0056 0.41382 0.05418 0.59375 0.19336 0.4845 0.48279 0.76815 2.3-0.08008 3.3887-1.1682 1.6209-2.7507 1.6839-3.3398 1.2324-0.61612-0.58111-0.14536-2.3857 0.69921-3.375 0.72483-0.81842 1.4874-1.4228 2.1269-1.4394zm-12.252 0.38474c0.6871 0.02946 1.5097 0.57393 2.1816 1.3535 0.78059 0.94044 1.1377 2.593 0.48631 3.08-0.61628 0.3718-2.1139 0.21764-3.1777-1.3105-0.71742-1.2823-0.6248-2.5873-0.12109-2.9707 0.18832-0.11471 0.40181-0.16216 0.63084-0.15234zm6.2323 4.5057c1.0964-0.04785 2.5674 0.35279 2.5703 0.88474 0.0182 0.51656-1.3355 1.6846-2.6445 1.6621-1.3556 0.058476-2.6834-1.1104-2.666-1.5156-0.020289-0.59405 1.6506-1.0585 2.7402-1.0312z"/>
</svg>
