<svg fill="currentColor" version="1.1" viewBox="0 0 24 24" width="24" height="24" xmlns="http://www.w3.org/2000/svg"><path d="m3.959 1c-0.14135 0.00603-0.27982 0.041973-0.40625 0.10547l-2 1c-0.33878 0.16944-0.55276 0.51574-0.55273 0.89453v2c2.762e-4 0.12717 0.024803 0.25312 0.072266 0.37109l6 15c0.090689 0.22741 0.26164 0.41365 0.48047 0.52344l3.9512 1.9746 0.048828 0.02539c0.00242 0.00121 0.005386 7.64e-4 0.007813 0.001953a1 1 0 0 0 0.19922 0.074219c0.007834 0.001938 0.015569 0.004114 0.023437 0.005859a1 1 0 0 0 0.21484 0.023438 1 1 0 0 0 0.001953 0c0.001294 0 0.002612 5e-6 0.003906 0a1 1 0 0 0 0.21875-0.025391 1 1 0 0 0 0.00586 0c0.00258-6.05e-4 0.005235-0.001327 0.007812-0.001953a1 1 0 0 0 0.21094-0.078125l4-2a1.0001 1.0001 0 0 0 0.28125-0.21094c0.004816-0.005146 0.008965-0.010379 0.013672-0.015625a1.0001 1.0001 0 0 0 0.18555-0.29688l6-15a1.0001 1.0001 0 0 0 0.072266-0.37109v-2a1.0001 1.0001 0 0 0-0.039062-0.27344 1.0001 1.0001 0 0 0 0-0.0019531c-1.67e-4 -5.796e-4 1.67e-4 -0.001374 0-0.0019532a1.0001 1.0001 0 0 0-0.10547-0.23828c-0.003488-0.0057793-0.006162-0.01187-0.009766-0.017578a1.0001 1.0001 0 0 0-0.16992-0.20312 1.0001 1.0001 0 0 0-0.22656-0.15625 1.0001 1.0001 0 0 0-0.001953-0.0019531l-2-1c-0.28156-0.14078-0.61297-0.14078-0.89453 0l-4 2c-0.33878 0.16944-0.55276 0.51574-0.55273 0.89453v1.7871l-3 6.75-3-6.75v-1.7871a1.0001 1.0001 0 0 0-0.039062-0.27344 1.0001 1.0001 0 0 0 0-0.0019531v-0.0019532a1.0001 1.0001 0 0 0-0.10547-0.23828c-0.0034876-0.0057793-0.006162-0.01187-0.0097657-0.017578a1.0001 1.0001 0 0 0-0.16992-0.20312 1.0001 1.0001 0 0 0-0.22656-0.15625 1.0001 1.0001 0 0 0-0.0019532-0.0019531l-4-2c-0.15122-0.075894-0.31922-0.11218-0.48828-0.10547zm17.041 3.7656v0.041016l-5.7871 14.469-3.2129 1.6074v-2.8828a1 1 0 0 0 0.44727-0.10547l2-1a1.0001 1.0001 0 0 0 0.48828-0.54297l3-8a1.0001 1.0001 0 0 0 0.064453-0.35156v-1.4336l3-1.8008zm-14 0.62109v0.61328a1.0001 1.0001 0 0 0 0.085938 0.40625l3.6582 8.2285-1.2734 0.84961-3.4707-8.6777v-1.0859l1-0.33398z"/></svg>
