<svg fill="currentColor" version="1.1" viewBox="0 0 24 24" width="24" height="24" xmlns="http://www.w3.org/2000/svg"><path d="m4 2c-1.108 0-2 0.892-2 2v16c0 1.108 0.892 2 2 2h16c1.108 0 2-0.892 2-2v-16c0-1.108-0.892-2-2-2h-16zm0 2h16v7h-0.82227l-1.75-4.3711a1.0001 1.0001 0 0 0-1.8848 0.083984l-2.043 6.8105-2.043-6.8105a1.0001 1.0001 0 0 0-0.93945-0.71289 1.0001 1.0001 0 0 0-0.97461 0.71289l-2.1777 7.2598-0.9375-2.3438a1.0001 1.0001 0 0 0-0.92773-0.62891h-1.5v-7zm12.635 6.0273 0.9375 2.3438a1.0001 1.0001 0 0 0 0.92773 0.62891h1.5v7h-16v-7h0.82227l1.75 4.3711a1.0001 1.0001 0 0 0 1.8848-0.083985l2.043-6.8105 2.043 6.8105a1.0001 1.0001 0 0 0 1.9141 0l2.1777-7.2598z"/></svg>
