<svg fill="currentColor" version="1.1" viewBox="0 0 24 24" width="24" height="24" xmlns="http://www.w3.org/2000/svg"><path d="m11.98 2a10 10 0 0 0-9.9805 10 10 10 0 0 0 1.334 4.9902l1.6055-1.2285a8 8 0 0 1-0.93945-3.7617 8 8 0 0 1 8-8 8 8 0 0 1 5.291 2h0.74414 1.9629a10 10 0 0 0-7.998-4 10 10 0 0 0-0.019531 0zm-4.4453 5 4.1289 4.8789-8.0039 6.1211h3.2949l6.0039-4.5918 3.8848 4.5918h2.6211l-4.9141-5.8086 6.7891-5.1914h-3.2949l-4.7891 3.6621-3.0996-3.6621h-2.6211zm13.754 1.2988-1.668 1.2754a8 8 0 0 1 0.37891 2.4258 8 8 0 0 1-1.0098 3.8906l1.2383 1.4629a1.0001 1.0001 0 0 1 0.11133 0.16211 10 10 0 0 0 1.6602-5.5156 10 10 0 0 0-0.71094-3.7012zm-16.43 10.701a10 10 0 0 0 7.1406 3 10 10 0 0 0 7.1406-3h-2.2969-0.97266a8 8 0 0 1-3.8711 1 8 8 0 0 1-3.873-1h-1.1719-2.0957z"/></svg>
