<svg version="1.1" viewBox="0 0 256 256" xmlns="http://www.w3.org/2000/svg">
 <path d="m113.93 42.312-71.623 31.141-0.035157-0.007813v0.023438l-0.041015 0.017578 0.041015 0.009766v115.29l99.756 24.939 0.00782-2.9512-0.00586 2.9551 71.701-34.291v-118.46l-0.06836 0.035157-99.732-18.699zm0.04101 6.2441h0.00196v12.42h-0.00196v-12.42zm9.7774 14.592 46.338 10.299 18.637-9.3203 0.02539 0.005859-49.879 24.939-15.238-3.2949 0.11719-22.629zm-19.799 2.6191v79.875l-39.855 21.328v-75.596l-9.3516-2.3379v-0.007812l49.205 12.301v-13.328h-0.00391v-6.4805l-22.686-4.9043 22.691-10.85zm-41.848 6.6777 1.875 0.4375-1.9219-0.41602 0.046874-0.021485zm126.69 16.588v71.697l-37.406-8.9062v-44.088l37.406-18.703zm-36.174 2.7891-10.357 5.2266h-0.0039l10.361-5.2266zm-29.02 0.84961h0.00196l-0.07227 13.557 6.0332 1.5078v38.891l-6.2344-1.4844h-0.00195l0.20312-38.914 0.07031-13.557zm-9.9688 55.502 0.34375 0.08789v0.00195 0.00195h-0.00195l-0.3418-0.09179zm0.34571 15.674 15.586 3.1816v24.881l-65.463-15.588 0.001953-0.00196 18.805 4.4785 31.07-16.947v-0.0039zm87.279 6.2363 0.00586 0.00196-49.875 24.938v-0.00391l49.869-24.936zm-49.869 1.4004 20.146 4.1094-20.146 10.072v-14.182z" fill="#fff"/>
 <g fill="#21a4df">
  <path d="m64.094 176.32 49.878-28.056v15.587l-31.07 16.948"/>
  <path d="m64.094 166.97 39.877-21.339 10.001 2.6349-49.878 28.056" opacity=".3"/>
  <path d="m54.742 179.44 9.3521-3.1174v-84.948l-9.3521-2.3382"/>
  <path d="m129.56 191.91-65.465-15.587-9.3521 3.1174 74.817 18.704" opacity=".3"/>
  <path d="m42.271 73.445v115.34l99.756 24.939 0.10352-44.131-12.572-2.5664v31.109l-74.816-18.703v-90.404l49.205 12.301v-13.328zm81.326 19.199-0.0723 13.584 6.0332 1.5078v38.895l12.617 3.0039 0.12305-52.576z" opacity=".6"/>
  <path d="m213.73 60.977-71.504 36.088-0.0898 52.561 9.2461 2.2012v-44.09l49.877-24.938v87.285l-49.877 24.939v-23.539l-9.2793-1.8945-0.0742 44.139 71.701-34.291z"/>
  <path d="m62.044 72.432 51.927-23.925v12.47l-33.13 15.839"/>
  <path d="m113.93 42.312-71.699 31.174 61.713 14.553v-6.5176l-41.889-9.0547 51.875-23.92 74.818 15.586-49.879 24.939-15.24-3.2949-0.0352 6.8945 18.627 4.3926 71.467-36.049z" opacity=".3"/>
  <path d="m113.97 60.976 9.7773 2.1727-0.42517 81.997-9.3521 3.1174"/>
  <path d="m188.79 64.094-74.817-15.587v12.47l56.113 12.47" opacity=".6"/>
  <path d="m103.95 145.72v-80.274l10.025-4.4685v87.287" opacity=".6"/>
  <path d="m113.97 148.26v15.587l57.56 11.746 17.258-8.6288" opacity=".6"/>
  <path d="m188.79 160.73-65.465-15.587-9.3521 3.1174 74.817 18.704" opacity=".3"/>
  <path d="m201.26 82.798-12.47 6.2348v77.935l12.47 3.1174" opacity=".6"/>
  <path d="m201.26 170.08-49.878 24.939v-9.3522l37.409-18.704z" opacity=".3"/>
 </g>
</svg>
