<?xml version="1.0" encoding="UTF-8"?>
<svg version="1.1" viewBox="0 0 512 256" xmlns="http://www.w3.org/2000/svg" xmlns:cc="http://creativecommons.org/ns#" xmlns:dc="http://purl.org/dc/elements/1.1/" xmlns:rdf="http://www.w3.org/1999/02/22-rdf-syntax-ns#">
 <metadata>
  <rdf:RDF>
   <cc:Work rdf:about="">
    <dc:format>image/svg+xml</dc:format>
    <dc:type rdf:resource="http://purl.org/dc/dcmitype/StillImage"/>
    <dc:title/>
   </cc:Work>
  </rdf:RDF>
 </metadata>
 <rect width="512" height="256" fill="#c5cfd3" fill-rule="evenodd" stroke-linecap="square" stroke-width="1.4115"/>
 <path d="m256.3 90.12a3.5003 3.5003 0 0 0-2.4746 1.0254l-33.974 33.974h-16.051a3.5 3.5 0 0 0-3.5 3.5 3.5 3.5 0 0 0 3.5 3.5h16.051l33.974 33.974a3.5003 3.5003 0 0 0 4.9492 0l33.974-33.974h16.051a3.5 3.5 0 0 0 3.5-3.5 3.5 3.5 0 0 0-3.5-3.5h-16.051l-33.974-33.974a3.5003 3.5003 0 0 0-2.4746-1.0254zm0 8.449 30.051 30.051-30.051 30.051-30.051-30.051zm0 16.051a14 14 0 0 0-14 14 14 14 0 0 0 14 14 14 14 0 0 0 14-14 14 14 0 0 0-14-14zm0 7a7 7 0 0 1 7 7 7 7 0 0 1-7 7 7 7 0 0 1-7-7 7 7 0 0 1 7-7zm-35 21a3.5 3.5 0 0 0-2.4746 1.0254 3.5 3.5 0 0 0 0 4.9492l37.474 37.474 37.474-37.474a3.5 3.5 0 0 0 0-4.9492 3.5 3.5 0 0 0-4.9492 0l-32.525 32.525-32.525-32.525a3.5 3.5 0 0 0-2.4746-1.0254z" fill="#df7320"/>
</svg>
