<?xml version="1.0" encoding="UTF-8"?>
<svg version="1.1" viewBox="0 0 512 256" xml:space="preserve" xmlns="http://www.w3.org/2000/svg"><rect width="512" height="256" fill="#df7320" fill-rule="evenodd" stroke-linecap="square" stroke-width="23.198"/><path d="m256.09 48a6.0059 6.0059 0 0 0-4.246 1.7594l-58.293 58.293h-27.541a6.0054 6.0054 0 0 0-6.0054 6.0054 6.0054 6.0054 0 0 0 6.0054 6.0054h27.541l58.293 58.293a6.0059 6.0059 0 0 0 8.492 0l58.293-58.293h27.541a6.0054 6.0054 0 0 0 6.0054-6.0054 6.0054 6.0054 0 0 0-6.0054-6.0054h-27.541l-58.293-58.293a6.0059 6.0059 0 0 0-4.246-1.7594zm0 14.497 51.562 51.562-51.562 51.562-51.562-51.562zm0 27.541a24.022 24.022 0 0 0-24.022 24.022 24.022 24.022 0 0 0 24.022 24.022 24.022 24.022 0 0 0 24.022-24.022 24.022 24.022 0 0 0-24.022-24.022zm0 12.011a12.011 12.011 0 0 1 12.011 12.011 12.011 12.011 0 0 1-12.011 12.011 12.011 12.011 0 0 1-12.011-12.011 12.011 12.011 0 0 1 12.011-12.011zm-60.054 36.032a6.0054 6.0054 0 0 0-4.246 1.7594 6.0054 6.0054 0 0 0 0 8.492l64.299 64.299 64.299-64.299a6.0054 6.0054 0 0 0 0-8.492 6.0054 6.0054 0 0 0-8.492 0l-55.807 55.807-55.807-55.807a6.0054 6.0054 0 0 0-4.246-1.7594z" fill="#fff" stroke-width="1.7158"/></svg>
