<?xml version="1.0" encoding="UTF-8" standalone="no"?>
<svg
   version="1.1"
   viewBox="0 0 128 128"
   id="svg1"
   width="128"
   height="128"
   xmlns="http://www.w3.org/2000/svg">
  <path
     d="M 64.08412,6.8093653 A 3.7101858,3.7101858 0 0 0 61.635175,7.8817398 L 20.827474,48.689438 a 3.7101858,3.7101858 0 0 0 0,5.24564 L 61.635175,94.74277 a 3.7101858,3.7101858 0 0 0 5.245637,0 L 107.68851,53.935078 a 3.7101858,3.7101858 0 0 0 0,-5.24564 L 66.880812,7.8817398 A 3.7101858,3.7101858 0 0 0 64.083928,6.8093653 Z M 64.258041,15.750457 99.820081,51.312499 64.258037,86.874545 28.695989,51.312499 Z M 19.740546,73.568769 v 3.709791 a 3.7097901,3.7097901 0 0 0 1.086922,2.622917 l 40.807701,40.807703 a 3.7101858,3.7101858 0 0 0 5.245637,0 L 107.68851,79.901477 a 3.7097901,3.7097901 0 0 0 1.0868,-2.622917 3.7097901,3.7097901 0 0 0 0,-0.1739 v -3.535859 h -3.70977 a 3.7097901,3.7097901 0 0 0 -2.62287,1.086852 L 64.258043,112.84028 26.073418,74.655653 a 3.7097901,3.7097901 0 0 0 -2.622965,-1.072371 v -0.01445 z"
     fill="#fbc75d" />
</svg>
