<?xml version="1.0" encoding="UTF-8" standalone="no"?>
<svg
   version="1.1"
   viewBox="0 0 512 256"
   id="svg1"
   sodipodi:docname="leap_header.svg"
   inkscape:export-filename="leap_header.png"
   inkscape:export-xdpi="96"
   inkscape:export-ydpi="96"
   inkscape:version="1.3.2 (091e20ef0f, 2023-11-25)"
   xmlns:inkscape="http://www.inkscape.org/namespaces/inkscape"
   xmlns:sodipodi="http://sodipodi.sourceforge.net/DTD/sodipodi-0.dtd"
   xmlns="http://www.w3.org/2000/svg"
   xmlns:svg="http://www.w3.org/2000/svg">
  <defs
     id="defs1" />
  <sodipodi:namedview
     id="namedview1"
     pagecolor="#505050"
     bordercolor="#eeeeee"
     borderopacity="1"
     inkscape:showpageshadow="0"
     inkscape:pageopacity="0"
     inkscape:pagecheckerboard="0"
     inkscape:deskcolor="#d1d1d1"
     inkscape:zoom="2.1621094"
     inkscape:cx="256.46251"
     inkscape:cy="127.88437"
     inkscape:window-width="1920"
     inkscape:window-height="1131"
     inkscape:window-x="0"
     inkscape:window-y="0"
     inkscape:window-maximized="1"
     inkscape:current-layer="svg1" />
  <rect
     width="512"
     height="256"
     fill="#fbc75d"
     fill-rule="evenodd"
     stroke-linecap="square"
     stroke-width="1.4115"
     id="rect1" />
  <path
     d="m 254.09115,75.934656 a 3.3887804,3.3887804 0 0 0 -2.2368,0.979477 l -37.27262,37.272627 a 3.3887804,3.3887804 0 0 0 0,4.79122 l 37.27262,37.27261 a 3.3887804,3.3887804 0 0 0 4.79123,0 l 37.27261,-37.27261 a 3.3887804,3.3887804 0 0 0 0,-4.79122 L 256.64558,76.914133 a 3.3887804,3.3887804 0 0 0 -2.5546,-0.979477 z m 0.15881,8.166541 32.48139,32.481383 -32.48139,32.48138 -32.48138,-32.48138 z m -40.66098,52.809633 v 3.38842 a 3.3884189,3.3884189 0 0 0 0.99275,2.39571 l 37.27262,37.27262 a 3.3887804,3.3887804 0 0 0 4.79123,0 l 37.27261,-37.27262 a 3.3884189,3.3884189 0 0 0 0.99266,-2.39571 3.3884189,3.3884189 0 0 0 0,-0.15881 v -3.22955 h -3.38841 a 3.3884189,3.3884189 0 0 0 -2.39567,0.99269 L 254.25,172.78037 219.37323,137.90358 a 3.3884189,3.3884189 0 0 0 -2.39574,-0.97947 v -0.0134 z"
     color="#000000"
     color-rendering="auto"
     dominant-baseline="auto"
     fill="#fbc75d"
     image-rendering="auto"
     shape-rendering="auto"
     solid-color="#000000"
     stop-color="#000000"
     style="font-variant-ligatures:normal;font-variant-position:normal;font-variant-caps:normal;font-variant-numeric:normal;font-variant-alternates:normal;font-variant-east-asian:normal;font-feature-settings:normal;font-variation-settings:normal;text-indent:0;text-decoration-line:none;text-decoration-style:solid;text-decoration-color:#000000;text-transform:none;text-orientation:mixed;white-space:normal;shape-padding:0;shape-margin:0;inline-size:0;isolation:auto;mix-blend-mode:normal;fill:#000000;fill-opacity:1;stroke-width:0.451789"
     id="path1-5"
     inkscape:export-filename="leap.png"
     inkscape:export-xdpi="429.16888"
     inkscape:export-ydpi="429.16888" />
</svg>
