<?xml version="1.0" encoding="UTF-8" standalone="no"?>
<svg
   version="1.1"
   viewBox="0 0 512 256"
   id="svg1"
   sodipodi:docname="leap_header.svg"
   inkscape:export-filename="leap_header.png"
   inkscape:export-xdpi="429.16888"
   inkscape:export-ydpi="429.16888"
   inkscape:version="1.3.2 (091e20ef0f, 2023-11-25)"
   xmlns:inkscape="http://www.inkscape.org/namespaces/inkscape"
   xmlns:sodipodi="http://sodipodi.sourceforge.net/DTD/sodipodi-0.dtd"
   xmlns="http://www.w3.org/2000/svg"
   xmlns:svg="http://www.w3.org/2000/svg">
  <defs
     id="defs1" />
  <sodipodi:namedview
     id="namedview1"
     pagecolor="#505050"
     bordercolor="#eeeeee"
     borderopacity="1"
     inkscape:showpageshadow="0"
     inkscape:pageopacity="0"
     inkscape:pagecheckerboard="0"
     inkscape:deskcolor="#d1d1d1"
     inkscape:zoom="2.1621094"
     inkscape:cx="256"
     inkscape:cy="127.88437"
     inkscape:window-width="1920"
     inkscape:window-height="1131"
     inkscape:window-x="0"
     inkscape:window-y="0"
     inkscape:window-maximized="1"
     inkscape:current-layer="svg1" />
  <rect
     width="512"
     height="256"
     fill="#fbc75d"
     fill-rule="evenodd"
     stroke-linecap="square"
     stroke-width="1.4115"
     id="rect1" />
  <path
     d="m 253.96914,35.699262 a 5.9853901,5.9853901 0 0 0 -3.95072,1.729988 l -65.83229,65.8323 a 5.9853901,5.9853901 0 0 0 0,8.46243 l 65.83229,65.83227 a 5.9853901,5.9853901 0 0 0 8.46245,0 l 65.83228,-65.83227 a 5.9853901,5.9853901 0 0 0 0,-8.46243 l -65.83228,-65.8323 a 5.9853901,5.9853901 0 0 0 -4.51203,-1.729988 z m 0.2805,14.424048 57.36984,57.36983 -57.36984,57.36982 -57.36982,-57.36982 z m -71.81694,93.27434 v 5.98476 a 5.9847517,5.9847517 0 0 0 1.75343,4.23139 l 65.83229,65.83228 a 5.9853901,5.9853901 0 0 0 8.46245,0 l 65.83228,-65.83228 a 5.9847517,5.9847517 0 0 0 1.75326,-4.23139 5.9847517,5.9847517 0 0 0 0,-0.2805 v -5.70415 h -5.98473 a 5.9847517,5.9847517 0 0 0 -4.23132,1.75332 l -61.60064,61.60069 -61.60065,-61.60069 a 5.9847517,5.9847517 0 0 0 -4.23145,-1.72997 v -0.0237 z"
     color="#000000"
     color-rendering="auto"
     dominant-baseline="auto"
     fill="#fbc75d"
     image-rendering="auto"
     shape-rendering="auto"
     solid-color="#000000"
     stop-color="#000000"
     style="font-variant-ligatures:normal;font-variant-position:normal;font-variant-caps:normal;font-variant-numeric:normal;font-variant-alternates:normal;font-variant-east-asian:normal;font-feature-settings:normal;font-variation-settings:normal;text-indent:0;text-decoration-line:none;text-decoration-style:solid;text-decoration-color:#000000;text-transform:none;text-orientation:mixed;white-space:normal;shape-padding:0;shape-margin:0;inline-size:0;isolation:auto;mix-blend-mode:normal;fill:#000000;fill-opacity:1;stroke-width:0.797966"
     id="path1-5"
     inkscape:export-filename="leap.png"
     inkscape:export-xdpi="429.16888"
     inkscape:export-ydpi="429.16888" />
</svg>
