<?xml version="1.0" encoding="UTF-8"?>
<svg version="1.1" viewBox="0 0 512 256" xml:space="preserve" xmlns="http://www.w3.org/2000/svg"><rect width="512" height="256" fill="#fbc75d" fill-rule="evenodd" stroke-linecap="square" stroke-width="23.198"/><path d="m255.76 48.006a5.1624 5.1624 0 0 0-3.4075 1.4921l-56.781 56.781a5.1624 5.1624 0 0 0 0 7.2989l56.781 56.781a5.1624 5.1624 0 0 0 7.2989 0l56.781-56.781a5.1624 5.1624 0 0 0 0-7.2989l-56.781-56.781a5.1624 5.1624 0 0 0-3.8916-1.4921zm0.24199 12.441 49.482 49.482-49.482 49.482-49.482-49.482zm-61.943 80.45v5.1619a5.1619 5.1619 0 0 0 1.5124 3.6496l56.781 56.781a5.1624 5.1624 0 0 0 7.2989 0l56.781-56.781a5.1619 5.1619 0 0 0 1.5122-3.6496 5.1619 5.1619 0 0 0 0-0.24197v-4.9199h-5.1619a5.1619 5.1619 0 0 0-3.6495 1.5123l-53.131 53.131-53.131-53.131a5.1619 5.1619 0 0 0-3.6496-1.4921v-0.0201z" color="#000000" color-rendering="auto" dominant-baseline="auto" image-rendering="auto" shape-rendering="auto" solid-color="#000000" stop-color="#000000" stroke-width=".68825" style="font-feature-settings:normal;font-variant-alternates:normal;font-variant-caps:normal;font-variant-east-asian:normal;font-variant-ligatures:normal;font-variant-numeric:normal;font-variant-position:normal;font-variation-settings:normal;inline-size:0;isolation:auto;mix-blend-mode:normal;shape-margin:0;shape-padding:0;text-decoration-color:#000000;text-decoration-line:none;text-decoration-style:solid;text-indent:0;text-orientation:mixed;text-transform:none;white-space:normal"/></svg>
