<svg version="1.1" viewBox="0 0 512 256" xmlns="http://www.w3.org/2000/svg">
 <rect width="512" height="256" fill="#973a84" fill-rule="evenodd" stroke-linecap="square" stroke-width="23.198"/>
 <path d="m256.09 68c-31.039 0-56.669 23.741-59.695 54h-30.305a6.0006 6.0006 0 1 0 0 12h30.305c3.0265 30.259 28.656 54 59.695 54s56.669-23.741 59.695-54h30.305a6.0006 6.0006 0 1 0 0-12h-30.305c-3.0265-30.259-28.656-54-59.695-54zm0 12c26.381 0 47.634 21.112 47.953 47.414a6.0006 6.0006 0 0 0 0 1.1484c-0.30684 26.314-21.565 47.437-47.953 47.437-26.381 0-47.634-21.112-47.953-47.414a6.0006 6.0006 0 0 0 0-1.1484c0.30687-26.314 21.565-47.437 47.953-47.437zm0 24c-13.183 0-24 10.816-24 24s10.816 24 24 24 24-10.816 24-24c0-13.183-10.816-24-24-24zm0 12c6.6985 0 12 5.3015 12 12s-5.3015 12-12 12-12-5.3015-12-12 5.3015-12 12-12z" fill="#fff" stroke-width="12"/>
</svg>
