<svg version="1.1" viewBox="0 0 512 256" xmlns="http://www.w3.org/2000/svg">
 <rect width="512" height="256" fill="#35b9ab"/>
 <path d="m306.24 84.004c-8.634 0-16.992 2.48-24.432 6.705-7.2561 4.1332-13.594 9.7358-19.196 15.89-2.2044 2.3881-4.3169 4.9599-6.4294 7.5315-2.0206 2.48-3.8577 5.0517-5.7865 7.6238-0.91845 1.2859-1.9288 2.6636-2.8473 3.9495-1.9288 2.6636-3.8577 5.2354-5.9702 7.6238-2.0206 2.2044-4.1332 4.3169-6.2458 6.4294-5.3272 5.2354-11.022 10.103-17.36 14.145-4.9599 3.1228-10.838 6.1539-16.9 6.1539-16.257 0-30.77-12.859-30.77-32.422s13.961-30.218 30.77-30.218c9.7358 0 18.278 4.1332 26.636 11.297l-4.5006 4.5925 21.86 5.511-6.0621-21.676-4.868 5.0517c-8.5418-7.6237-19.105-13.777-32.422-13.777-21.768 0-39.679 15.706-39.679 39.679 0 22.962 17.911 39.679 38.026 39.679 8.358 0 16.441-2.48 23.513-6.705 6.4294-3.7658 12.032-8.7255 17.176-14.145 1.7451-1.837 3.3984-3.674 5.0517-5.511 2.2044-2.3881 4.225-4.7762 6.062-7.5315 0.82665-1.194 1.5614-2.3881 2.3881-3.5822 1.4696-2.2044 2.8473-4.4088 4.4088-6.5213 2.9392-3.9495 5.9702-7.8075 9.1852-11.481 5.5109-6.1539 11.757-11.848 19.012-15.706 5.7865-3.1228 12.216-4.7762 18.829-4.7762 22.962 0 35.822 15.982 35.822 36.372 0 19.012-12.308 34.719-33.525 34.719-12.124 0-22.779-3.3066-33.984-12.951l5.2354-6.3376-22.227-3.674 7.899 21.126 4.4088-5.3272c10.838 9.828 22.687 16.257 38.117 16.257 25.718 0 42.526-19.564 42.526-44.18-0.0918-25.901-17.451-43.812-43.72-43.812z" fill="#000"/>
</svg>
