<?xml version="1.0" encoding="UTF-8" standalone="no"?>
<svg
   version="1.1"
   viewBox="0 0 512 256"
   id="svg1"
   sodipodi:docname="tumbleweed_header.svg"
   inkscape:version="1.3.2 (091e20ef0f, 2023-11-25)"
   xmlns:inkscape="http://www.inkscape.org/namespaces/inkscape"
   xmlns:sodipodi="http://sodipodi.sourceforge.net/DTD/sodipodi-0.dtd"
   xmlns="http://www.w3.org/2000/svg"
   xmlns:svg="http://www.w3.org/2000/svg">
  <defs
     id="defs1" />
  <sodipodi:namedview
     id="namedview1"
     pagecolor="#505050"
     bordercolor="#eeeeee"
     borderopacity="1"
     inkscape:showpageshadow="0"
     inkscape:pageopacity="0"
     inkscape:pagecheckerboard="0"
     inkscape:deskcolor="#505050"
     inkscape:zoom="1.1244232"
     inkscape:cx="122.72959"
     inkscape:cy="266.35879"
     inkscape:window-width="1920"
     inkscape:window-height="1131"
     inkscape:window-x="0"
     inkscape:window-y="32"
     inkscape:window-maximized="1"
     inkscape:current-layer="svg1" />
  <rect
     width="512"
     height="256"
     fill="#35b9ab"
     id="rect1" />
  <path
     d="m 212.03312,34.499735 c -27.33655,-0.06555 -49.5987,22.196425 -49.53297,49.532963 0.0656,27.336542 22.37901,49.646892 49.71556,49.712622 l 12.29026,0.0294 -0.026,-0.003 c 0.008,2e-5 0.0117,-10e-6 0.0195,0 h 0.003 c 11.16949,0.0253 20.91687,0.048 25.66698,0.0588 0.0134,6.51798 0.0596,27.47093 0.0848,37.95419 0.0654,27.33655 22.37609,49.64982 49.71262,49.71555 27.33656,0.0657 49.59871,-22.19642 49.53297,-49.53296 -0.0654,-27.33655 -22.37899,-49.6469 -49.71555,-49.71263 -3.20413,-0.008 -6.59728,-0.015 -11.59879,-0.0261 -11.36141,-0.0259 -21.5362,-0.0482 -26.35203,-0.0587 -0.0133,-6.51797 -0.0597,-27.470935 -0.0849,-37.954201 -0.0655,-27.336945 -22.37893,-49.650224 -49.71546,-49.715954 z m -0.0294,11.693437 c 1.61113,0.0038 3.19451,0.119405 4.75231,0.316381 v 42.105439 h -42.26608 c -0.18561,-1.512679 -0.29306,-3.049607 -0.29682,-4.612087 -0.0504,-21.019122 16.79193,-37.86071 37.8096,-37.809586 z m 16.44575,3.754229 c 12.76485,6.139365 21.56979,19.169905 21.6063,34.293747 0.0251,10.465447 0.0701,31.337322 0.0848,37.898672 -6.56092,-0.0151 -27.43004,-0.0596 -37.89431,-0.0848 -15.17788,-0.0364 -28.24654,-8.90661 -34.35947,-21.74654 h 50.56423 V 49.947312 Z m 33.41003,83.911409 c 6.56296,0.015 27.43295,0.0597 37.89869,0.0849 15.37945,0.0369 28.58686,9.1459 34.59027,22.26217 h -50.35535 v 50.04859 c -13.00234,-6.05027 -22.01237,-19.20205 -22.04889,-34.4997 -0.0251,-10.46544 -0.0702,-31.3344 -0.0849,-37.89431 z m 33.82486,34.03377 h 41.89072 c 0.14696,1.34798 0.22825,2.7164 0.23158,4.10331 0.0504,21.01913 -16.79192,37.86071 -37.80958,37.80961 -1.45906,-0.003 -2.89624,-0.0985 -4.31207,-0.26094 v -41.65264 z"
     color="#000000"
     fill="#35b9ab"
     fill-rule="evenodd"
     stroke-linecap="square"
     style="fill:#000000;fill-opacity:1;stroke-width:1.46068;-inkscape-stroke:none"
     id="path1-5" />
</svg>
