<?xml version="1.0" encoding="UTF-8" standalone="no"?>
<svg
   fill="currentColor"
   version="1.1"
   viewBox="0 0 256 256"
   id="svg1"
   sodipodi:docname="tumbleweed.svg"
   inkscape:version="1.3.2 (091e20ef0f, 2023-11-25)"
   inkscape:export-filename="tumbleweed.png"
   inkscape:export-xdpi="96"
   inkscape:export-ydpi="96"
   xmlns:inkscape="http://www.inkscape.org/namespaces/inkscape"
   xmlns:sodipodi="http://sodipodi.sourceforge.net/DTD/sodipodi-0.dtd"
   xmlns="http://www.w3.org/2000/svg"
   xmlns:svg="http://www.w3.org/2000/svg">
  <defs
     id="defs1" />
  <sodipodi:namedview
     id="namedview1"
     pagecolor="#505050"
     bordercolor="#eeeeee"
     borderopacity="1"
     inkscape:showpageshadow="0"
     inkscape:pageopacity="0"
     inkscape:pagecheckerboard="0"
     inkscape:deskcolor="#505050"
     inkscape:zoom="3.4492188"
     inkscape:cx="151.0487"
     inkscape:cy="128"
     inkscape:window-width="1920"
     inkscape:window-height="1131"
     inkscape:window-x="0"
     inkscape:window-y="32"
     inkscape:window-maximized="1"
     inkscape:current-layer="svg1" />
  <path
     d="M 69.220644,2.9998602 C 32.674519,2.9122294 2.9123313,32.674174 3.0002054,69.220285 3.0878808,105.76641 32.918617,135.59303 69.464737,135.68091 l 16.430808,0.0393 -0.03483,-0.004 c 0.01119,2e-5 0.01563,-2e-5 0.02612,0 h 0.0044 c 14.932455,0.0338 27.963685,0.0641 34.314095,0.0786 0.0179,8.71385 0.0797,36.72577 0.11342,50.7408 0.0875,36.54612 29.9145,66.37665 66.4606,66.46453 36.54614,0.0878 66.30833,-29.67431 66.22044,-66.22042 -0.0875,-36.54613 -29.91839,-66.37275 -66.46453,-66.46063 -4.28359,-0.0112 -8.81987,-0.02 -15.50637,-0.0349 -15.18902,-0.0346 -28.79166,-0.0644 -35.22993,-0.0785 -0.0178,-8.71385 -0.0798,-36.725793 -0.11349,-50.740827 C 135.59786,32.918261 105.76717,3.0877254 69.221068,2.9998513 Z m -0.0393,15.6329098 c 2.153909,0.0051 4.270712,0.159633 6.353334,0.42297 V 75.346336 H 19.029335 C 18.781195,73.324042 18.637529,71.269328 18.632512,69.180455 18.565153,41.080073 41.081574,18.56462 69.18001,18.632967 Z m 21.986244,5.019015 c 17.065282,8.207693 28.836582,25.628171 28.885392,45.847176 0.0335,13.991212 0.0937,41.894759 0.11342,50.666599 -8.77127,-0.0202 -36.671115,-0.0797 -50.660763,-0.11342 C 49.214394,120.00346 31.742948,108.14492 23.570599,90.979268 H 91.169715 V 23.651666 Z M 135.83333,135.83263 c 8.774,0.0201 36.67501,0.0798 50.66661,0.11348 20.56073,0.0494 38.21767,12.2271 46.2436,29.7622 h -67.31987 v 66.90976 c -17.38277,-8.08858 -29.42825,-25.67114 -29.47707,-46.12252 -0.0336,-13.9912 -0.0939,-41.89083 -0.11348,-50.66074 z m 45.22033,45.4996 h 56.00354 c 0.19647,1.80211 0.30515,3.63155 0.3096,5.48571 0.0674,28.10039 -22.44905,50.61583 -50.54748,50.54751 -1.95062,-0.004 -3.87197,-0.1317 -5.76479,-0.34885 v -55.68524 z"
     color="#000000"
     fill="#35b9ab"
     fill-rule="evenodd"
     stroke-linecap="square"
     style="stroke-width:1.95278;-inkscape-stroke:none"
     id="path1-5" />
</svg>
